<svg xmlns="http://www.w3.org/2000/svg" viewBox="0 0 295.38 295.38"><path d="M147.69 32.59c-14.647 0-26.12 9.322-26.12 21.224 0 11.903 11.473 21.227 26.12 21.227s26.12-9.324 26.12-21.227c0-11.902-11.473-21.224-26.12-21.224zm0 27.409c-6.239 0-11.079-3.325-11.079-6.185 0-2.859 4.84-6.183 11.079-6.183 6.239 0 11.079 3.323 11.079 6.183 0 2.861-4.84 6.185-11.079 6.185zm58.064 18.1c-6.997 0-14.236 3.225-19.86 8.849-4.641 4.639-7.687 10.438-8.58 16.329-1.006 6.639.859 12.89 5.119 17.151 3.475 3.473 8.312 5.387 13.617 5.387 6.998 0 14.237-3.226 19.861-8.849 4.64-4.641 7.686-10.439 8.578-16.329 1.007-6.64-.859-12.891-5.118-17.149-3.474-3.475-8.31-5.389-13.617-5.389zm3.864 20.284c-.409 2.699-1.992 5.596-4.344 7.947-2.74 2.741-6.275 4.444-9.224 4.444-.912 0-2.17-.171-2.982-.982-1.198-1.199-1.016-3.379-.882-4.261.408-2.699 1.992-5.595 4.344-7.946 2.741-2.742 6.275-4.444 9.224-4.444.912 0 2.169.17 2.982.983 1.198 1.198 1.015 3.377.882 4.259zm-100.13-11.435c-5.625-5.624-12.864-8.849-19.861-8.849-5.306 0-10.143 1.914-13.619 5.388-4.258 4.259-6.123 10.509-5.118 17.15.893 5.89 3.94 11.689 8.579 16.329 5.624 5.623 12.862 8.848 19.86 8.849h.001c5.306 0 10.142-1.914 13.618-5.388 4.259-4.26 6.124-10.511 5.118-17.15-.891-5.89-3.938-11.689-8.578-16.329zm-10.156 23.825c-2.949-.001-6.484-1.703-9.225-4.444-2.351-2.351-3.935-5.248-4.343-7.947-.134-.881-.315-3.062.882-4.259.812-.813 2.07-.983 2.982-.983 2.949 0 6.483 1.702 9.225 4.444 2.351 2.351 3.934 5.247 4.343 7.946.133.881.315 3.062-.882 4.26-.813.813-2.069.983-2.981.983h-.001z" fill="#3f2d20"/><path d="M233.254 52.349zm-85.647-34.761zM257.2 96.019zm-34.41-53.964zm-13.751-9.32zm51.558 63.843zm-46.935-61.1zm62.008 71.259zm-1.806-2.261zm-75.596-77.003zm75.036 76.387zm-4.37-3.695zm-5.172-2.625zm2.704 1.189zM17.114 131.444zm1.396 2.728zm-2.622-6.374zm4.486 9.138zm-5.113-12.367zm9.835 17.064zm252.066-32.539a25.328 25.328 0 00-12.289-3.168c-.028 0-.054-.004-.081-.004-.027 0-.055.004-.082.004a7.519 7.519 0 01-7.52-7.52c0-.8-.026-1.597-.064-2.391a25.625 25.625 0 00-2.28-.116c-.027 0-.054-.004-.081-.004-.027 0-.055.004-.082.004a7.52 7.52 0 01-7.521-7.52c0-13.06-5.019-25.296-13.728-35.809-18.275-15.257-45.471-24.954-75.797-24.954-54.893 0-99.551 31.756-99.551 70.791a7.52 7.52 0 01-7.521 7.52c-14.057 0-25.494 11.437-25.494 25.495 0 4.454 1.152 8.316 3.168 11.964 3.65 2.019 7.84 2.85 12.298 2.85h214.309c14.057 0 25.494-11.111 25.494-25.168-.001-4.459-1.159-8.324-3.178-11.974zm-164.213 11.333c-3.476 3.475-8.312 5.388-13.618 5.388h-.001c-6.998-.001-14.236-3.225-19.86-8.848-4.639-4.64-7.686-10.439-8.579-16.329-1.006-6.64.859-12.891 5.117-17.15 3.476-3.474 8.312-5.388 13.619-5.388 6.997 0 14.235 3.225 19.86 8.849 4.64 4.64 7.686 10.439 8.579 16.329 1.008 6.638-.858 12.889-5.117 17.149zm34.742-45.386c-14.647 0-26.12-9.324-26.12-21.227 0-11.902 11.473-21.225 26.12-21.225s26.12 9.322 26.12 21.225c-.001 11.903-11.474 21.227-26.12 21.227zm76.798 25.596c-.892 5.89-3.939 11.688-8.578 16.329-5.624 5.623-12.863 8.848-19.861 8.848-5.305 0-10.142-1.913-13.617-5.387-4.26-4.261-6.124-10.512-5.118-17.151.893-5.891 3.939-11.69 8.58-16.329 5.624-5.624 12.863-8.849 19.86-8.849 5.307 0 10.143 1.914 13.618 5.389 4.258 4.259 6.123 10.51 5.116 17.15zM28.118 143.638zM155.529 17.832zm12.1 1.194zm7.408 1.316zM20.706 137.381zm160.13-115.724zm-19.093-3.344zM193 25.407z" fill="#ef8829"/><path d="M155.282 49.506zm-3.398-1.344c.27.07.519.159.778.24-.259-.082-.507-.171-.778-.24zm5.299 2.723zm-3.482-2.132c.264.105.508.224.756.34-.249-.116-.491-.234-.756-.34zm3.924 2.588zm.706 1.013zm-16.614 6.535c-.132-.052-.27-.1-.398-.155.129.056.265.103.398.155zm-3.341-1.961c.092.081.191.158.289.237-.098-.078-.198-.156-.289-.237zm1.531 1.099c-.103-.061-.194-.126-.293-.188.1.063.19.128.293.188zm18.711-4.958a16.67 16.67 0 00-5.27-.841c-6.239 0-11.078 3.324-11.078 6.183 0 .232.047.467.11.703 1.573.535 3.359.886 5.311.886 6.239 0 11.078-3.325 11.078-6.185 0-.246-.082-.496-.151-.746zm-21.704 1.973zm12.955-7.268c.242.031.465.087.7.127-.235-.04-.458-.096-.7-.127zm-12.374 8.244c-.036-.045-.058-.092-.092-.138.034.046.056.092.092.138zm72.145 40.198zm-.286-1.115c.049.119.076.245.113.368-.037-.125-.064-.247-.113-.368zm-7.874 7.08c-2.352 2.351-3.936 5.247-4.344 7.946-.023.152-.045.355-.065.575 2.718-.334 5.773-1.941 8.203-4.373 2.352-2.351 3.935-5.248 4.344-7.947.022-.145.039-.367.057-.574-2.715.337-5.766 1.942-8.195 4.373zm8.205-4.468c.011-.14.011-.273.014-.429-.003.146-.004.297-.014.429zM93.536 108.985zm-1.941-1.346zm5.612 2.859zm-1.952-.658zm7.941-4.31c-.347-2.29-1.575-4.701-3.364-6.821a9.112 9.112 0 00-2.072-.265c-.912 0-2.17.17-2.982.983-1.198 1.197-1.016 3.377-.882 4.259.345 2.28 1.537 4.929 3.313 7.043.727.174 1.442.506 2.123.506h.001c.912 0 2.168-.401 2.981-1.214 1.197-1.197 1.015-3.609.882-4.491z" fill="#ce593f"/><path fill="#84bd93" d="M57.628 172.235l17.323 70.621-12.226-70.621zm65.999 105h15.453v-105h-26.544zm31.453-105v105h16.675l11.09-105zm62.312 0h-19.423l-11.09 105h12.193l20.056-115.445zm26.928 0h-11.663l-18.321 105h4.023l28.42-115.445zM96.363 161.79l1.05 10.445H77.99l18.32 105h12.194z"/><path d="M261.837 81.475c-2.165-20.748-14.07-39.908-34.077-54.541-21.503-15.727-49.968-24.388-80.153-24.388-30.184 0-58.648 8.661-80.151 24.388-20.017 14.64-31.925 33.812-34.081 54.571C14.428 84.896 0 101.486 0 121.393c0 19.754 14.207 36.244 32.938 39.811l30.881 125.901a7.522 7.522 0 007.305 5.729h153.134a7.522 7.522 0 007.305-5.729l30.882-125.901c18.729-3.568 32.936-20.057 32.936-39.811-.001-19.966-14.514-36.595-33.544-39.918zM108.504 277.793H96.31L76.254 161.929h20.108l12.142 115.864zm31.666-115.864v115.864h-16.543l-12.142-115.864h28.685zm15.041 0h28.685l-12.141 115.864h-16.544V161.929zm43.809 0h20.108l-20.056 115.864h-12.193l12.141-115.864zm-138.031 0l20.057 115.864h-4.024l-28.42-115.864h12.387zm153.346 115.864l20.057-115.864h12.387l-28.42 115.864h-4.024zm40.51-130.906H40.536c-14.057 0-25.494-11.437-25.494-25.494s11.437-25.494 25.494-25.494a7.52 7.52 0 007.521-7.521c0-39.034 44.658-70.791 99.551-70.791 54.894 0 99.553 31.757 99.553 70.791a7.52 7.52 0 007.521 7.521c.027 0 .055-.004.082-.004.028 0 .054.004.081.004 14.057 0 25.494 11.437 25.494 25.494 0 14.058-11.437 25.494-25.494 25.494z" fill="#3f2d20"/></svg>