<svg xmlns="http://www.w3.org/2000/svg" xmlns:xlink="http://www.w3.org/1999/xlink"><defs><style>.cls-1{fill:#0f4172;}.cls-2{fill:#fff;}</style><style>.cls-1{fill:#0f4172;}.cls-2{fill:#fff;}</style><style>.cls-1{fill:none;stroke:#0c4475;stroke-linecap:round;stroke-linejoin:round;stroke-width:1.5px;}</style><style>.cls-1{fill:none;stroke:#0c4475;stroke-linecap:round;stroke-linejoin:round;stroke-width:1.5px;}</style><style>.cls-1{fill:none;stroke:#0c4475;stroke-linecap:round;stroke-linejoin:round;stroke-width:1.5px;}</style><style>.cls-1{fill:none;stroke:#0c4475;stroke-linecap:round;stroke-linejoin:round;stroke-width:1.5px;}</style><style>.cls-1{fill:none;stroke:#0c4475;stroke-linecap:round;stroke-linejoin:round;stroke-width:1.5px;}.cls-2{fill:#0c4475;}</style><style>.cls-1{fill:none;stroke:#0c4475;stroke-linecap:round;stroke-linejoin:round;stroke-width:1.5px;}</style></defs><symbol id="icon-add-cart" viewBox="0 0 29.25 27.77" fill="none"><path fill="none" stroke="currentColor" stroke-linecap="round" stroke-linejoin="round" stroke-width="2" d="M1 1h6.13l1.34 22.36h16.07"/><path fill="none" stroke="currentColor" stroke-linecap="round" stroke-linejoin="round" stroke-width="2" d="M8.19 18.75H25.5l2.75-11.62"/><circle cx="12.09" cy="25.86" r="1.91" fill="currentColor"/><circle cx="21.67" cy="25.86" r="1.91" fill="currentColor"/><path fill="none" stroke="currentColor" stroke-linecap="round" stroke-linejoin="round" stroke-width="2" d="M17.51 2.79v10.84m5.41-5.42H12.09"/></symbol><symbol id="icon-arrow-contact" viewBox="0 0 13 8" fill="none">
<path d="M1 1L6.5 6.5L12 1" stroke="#656565" stroke-width="2"/>
</symbol><symbol id="icon-arrow-filter" viewBox="0 0 17 10" fill="none">
<path d="M1 1L8.5 8.5L16 1" stroke="#B5B5B5" stroke-width="1.5" stroke-linejoin="round"/>
</symbol><symbol id="icon-arrow-next" viewBox="0 0 22.67 38.25" fill="none"><title>arrow 2</title><path class="cls-1" d="M75,86.93a3,3,0,0,1-2.12-5.12L86.41,68.27,72.94,54.8a3,3,0,0,1,4.25-4.24L92.77,66.14a3,3,0,0,1,0,4.25L77.1,86.05A3,3,0,0,1,75,86.93Z" transform="translate(-71.48 -49.18)"/><path class="cls-2" d="M75.07,50.18a2.49,2.49,0,0,1,1.76.73L92.42,66.5a2.5,2.5,0,0,1,0,3.53L76.75,85.7a2.51,2.51,0,0,1-3.54,0,2.52,2.52,0,0,1,0-3.54l13.9-13.89L73.3,54.45a2.5,2.5,0,0,1,0-3.54,2.53,2.53,0,0,1,1.77-.73m0-1a3.51,3.51,0,0,0-2.48,6L85.7,68.27,72.51,81.46a3.5,3.5,0,0,0,4.95,5L93.12,70.74a3.49,3.49,0,0,0,0-4.95L77.54,50.21a3.48,3.48,0,0,0-2.47-1Z" transform="translate(-71.48 -49.18)"/></symbol><symbol id="icon-arrow-prev" viewBox="0 0 22.67 38.25" fill="none"><title>arrow 1</title><path class="cls-1" d="M82,83.11a3,3,0,0,1-2.13-.88L64.19,66.56a3,3,0,0,1,0-4.24L79.77,46.74A3,3,0,1,1,84,51L70.55,64.44,84.1,78A3,3,0,0,1,82,83.11Z" transform="translate(-62.81 -45.36)"/><path class="cls-2" d="M81.89,46.36a2.5,2.5,0,0,1,1.77,4.27L69.84,64.44l13.9,13.9A2.5,2.5,0,0,1,82,82.61a2.53,2.53,0,0,1-1.77-.73L64.54,66.21a2.51,2.51,0,0,1,0-3.54L80.13,47.09a2.45,2.45,0,0,1,1.76-.73m0-1a3.47,3.47,0,0,0-2.47,1L63.83,62a3.51,3.51,0,0,0,0,5L79.5,82.58a3.5,3.5,0,1,0,5-5L71.26,64.44,84.37,51.33a3.5,3.5,0,0,0-2.48-6Z" transform="translate(-62.81 -45.36)"/></symbol><symbol id="icon-burger-category" viewBox="0 0 15 9" fill="none">
<line x1="0.611115" y1="8.5" x2="13.6111" y2="8.5" stroke="#3675C3" stroke-linecap="round"/>
<line x1="0.5" y1="4.5" x2="13.5" y2="4.5" stroke="#3675C3" stroke-linecap="round"/>
<line x1="0.611115" y1="0.5" x2="13.6111" y2="0.5" stroke="#3675C3" stroke-linecap="round"/>
</symbol><symbol id="icon-close" viewBox="0 0 17.41 17.41" fill="none"><line x1="16.66" y1="0.75" x2="0.75" y2="16.66" fill="none" stroke="currentColor" stroke-linecap="round" stroke-linejoin="round" stroke-width="1.5"/><line x1="0.75" y1="0.75" x2="16.66" y2="16.66" fill="none" stroke="currentColor" stroke-linecap="round" stroke-linejoin="round" stroke-width="1.5"/></symbol><symbol id="icon-compare" viewBox="0 0 14.5 19.08" fill="none"><path fill="none" stroke="currentColor" stroke-miterlimit="10" stroke-width="2.5" d="M1.25 19.08V5.03m6 14.05V0m6 19.08V9.92"/></symbol><symbol id="icon-favorites" viewBox="0 0 23.07 19.37" fill="none"><path d="M11.5,5.2C9.81.26,3.88-.86,1.5,3.33c-4.11,7.25,10,15.25,10,15.25" fill="none" stroke="currentColor" stroke-linecap="round" stroke-linejoin="round" stroke-width="1.5"/><path d="M11.57,5.25c1.69-4.94,7.63-6.07,10-1.88,4.12,7.25-10,15.25-10,15.25" fill="none" stroke="currentColor" stroke-linecap="round" stroke-linejoin="round" stroke-width="1.5"/></symbol><symbol id="icon-fb" viewBox="0 0 15.84 30.5" fill="none"><path d="M10.28,30.5V16.59H15l.7-5.43H10.28V7.7c0-1.57.44-2.64,2.69-2.64h2.87V.21A40.57,40.57,0,0,0,11.65,0c-4.14,0-7,2.53-7,7.17v4H0v5.43H4.68V30.5Z" fill="currentColor"/></symbol><symbol id="icon-filter" viewBox="0 0 15 14" fill="none">
<path d="M14 1H1L6.07317 7.46154V13L8.92683 11.7692V7.46154L14 1Z" stroke="#3675C3" stroke-linecap="round" stroke-linejoin="round"/>
</symbol><symbol id="icon-flash" viewBox="0 0 12 20" fill="none">
<path d="M5.83135 7.13341L5.75741 7.6983H6.32712H11.4307L5.43985 18.3692L6.09141 12.0778L6.14853 11.5263H5.59407H0.570784L6.65045 0.874937L5.83135 7.13341Z" stroke="currentColor"/>
</symbol><symbol id="icon-geo" viewBox="0 0 15 21" fill="none">
<path d="M7.7304 0.264648C3.72196 0.264648 0.460938 3.52567 0.460938 7.53412C0.460938 9.37551 1.62119 11.9772 3.90961 15.267C5.58227 17.6718 7.22738 19.5327 7.29669 19.6108L7.7304 20.0999L8.16427 19.6108C8.23343 19.5327 9.87854 17.6718 11.5514 15.267C13.8396 11.9772 15 9.37551 15 7.53412C15 3.52567 11.7388 0.264648 7.7304 0.264648ZM10.6057 14.5954C9.4751 16.2219 8.3324 17.6217 7.7304 18.3358C7.12993 17.6236 5.99147 16.2291 4.86163 14.6047C2.74134 11.5566 1.62058 9.11159 1.62058 7.53412C1.62058 4.16519 4.36148 1.42429 7.7304 1.42429C11.0995 1.42429 13.8402 4.16519 13.8402 7.53412C13.8402 9.10992 12.7217 11.5516 10.6057 14.5954Z" fill="currentColor"/>
<path d="M7.73038 2.95142C5.36463 2.95142 3.44 4.87604 3.44 7.24179C3.44 9.60754 5.36463 11.5323 7.73038 11.5323C10.0963 11.5323 12.0209 9.60754 12.0209 7.24179C12.0209 4.87604 10.0963 2.95142 7.73038 2.95142ZM7.73038 10.3727C6.00415 10.3727 4.59965 8.96817 4.59965 7.24179C4.59965 5.51556 6.00415 4.11106 7.73038 4.11106C9.45676 4.11106 10.8613 5.51556 10.8613 7.24179C10.8613 8.96817 9.45676 10.3727 7.73038 10.3727Z" fill="currentColor"/>
</symbol><symbol id="icon-inst" viewBox="0 0 20.87 20.87" fill="none"><rect width="20.87" height="20.87" rx="4.69" fill="currentColor"/><circle cx="10.43" cy="10.39" r="5.13" fill="none" stroke="#fff" stroke-miterlimit="10" stroke-width="2"/><circle cx="17.26" cy="3.65" r="0.9" fill="#fff"/></symbol><symbol id="icon-location" viewBox="0 0 15.01 16.25" fill="none"><polygon points="0 8.15 15.01 0 10.56 16.25 7.9 8.79 0 8.15" fill="currentColor"/></symbol><symbol id="icon-login" viewBox="0 0 13.59 16.19" fill="none"><polyline points="3 5.65 3 0.5 13.09 0.5 13.09 15.69 3 15.69 3 10.56" fill="none" stroke="#aaa" stroke-linecap="round" stroke-miterlimit="10"/><line x1="0.5" y1="8.09" x2="8.38" y2="8.09" fill="none" stroke="#aaa" stroke-linecap="round" stroke-miterlimit="10"/><polygon points="6.63 5.54 6.63 10.65 9.17 8.11 6.63 5.54" fill="#aaa"/></symbol><symbol id="icon-pay-card-online" viewBox="0 0 41.65 41.65" fill="none"><title>17</title><circle class="cls-1" cx="20.83" cy="20.83" r="20.08"/><path class="cls-1" d="M26.89,34.29a4.05,4.05,0,0,1,0,6.45" transform="translate(-14.95 -16.87)"/><path class="cls-1" d="M30.79,31.7s5.81,5.26,0,11.62" transform="translate(-14.95 -16.87)"/><path class="cls-1" d="M34.67,28.73s8.77,8,0,17.56" transform="translate(-14.95 -16.87)"/><path class="cls-1" d="M38,24.79s12.7,11.52,0,25.44" transform="translate(-14.95 -16.87)"/></symbol><symbol id="icon-pay-card" viewBox="0 0 49.54 40.95" fill="none"><title>12</title><rect class="cls-1" x="0.75" y="15.5" width="39.29" height="24.7" rx="3.32" ry="3.32"/><path class="cls-1" d="M20.09,34.34a3.27,3.27,0,0,1,2.15-3.65L53.19,20a3.27,3.27,0,0,1,4.16,2l5.94,17.16a3.27,3.27,0,0,1-2,4.16l-6.54,2.27" transform="translate(-14.68 -19.05)"/><line class="cls-1" x1="14.89" y1="15.44" x2="43.56" y2="5.52"/><line class="cls-1" x1="6.39" y1="29.81" x2="16.43" y2="29.81"/><line class="cls-1" x1="6.39" y1="33.86" x2="22.5" y2="33.86"/></symbol><symbol id="icon-pay-cash" viewBox="0 0 47 41.06" fill="none"><title>16</title><ellipse class="cls-1" cx="15.4" cy="5.87" rx="14.65" ry="5.12"/><path class="cls-1" d="M44.38,30.08c0,2.83-6.55,5.12-14.64,5.12s-14.65-2.29-14.65-5.12" transform="translate(-14.34 -18.63)"/><path class="cls-1" d="M31.29,41.69c-.51,0-1,0-1.55,0-8.09,0-14.65-2.3-14.65-5.12" transform="translate(-14.34 -18.63)"/><path class="cls-1" d="M31.29,47.27c-.51,0-1,0-1.55,0-8.09,0-14.65-2.29-14.65-5.12" transform="translate(-14.34 -18.63)"/><path class="cls-1" d="M31.29,53.79c-.51,0-1,0-1.55,0-8.09,0-14.65-2.29-14.65-5.11" transform="translate(-14.34 -18.63)"/><line class="cls-1" x1="0.75" y1="5.87" x2="0.75" y2="30.07"/><line class="cls-1" x1="30.05" y1="17.97" x2="30.05" y2="5.87"/><ellipse class="cls-1" cx="31.6" cy="23.09" rx="14.65" ry="5.12"/><path class="cls-1" d="M60.58,47.3c0,2.83-6.55,5.12-14.64,5.12S31.29,50.13,31.29,47.3" transform="translate(-14.34 -18.63)"/><path class="cls-1" d="M60.58,53.81c0,2.83-6.55,5.12-14.64,5.12s-14.65-2.29-14.65-5.12" transform="translate(-14.34 -18.63)"/><line class="cls-1" x1="16.95" y1="23.09" x2="16.95" y2="35.54"/><line class="cls-1" x1="46.25" y1="35.43" x2="46.25" y2="23.09"/></symbol><symbol id="icon-pay-cashless" viewBox="0 0 67.16 40.94" fill="none"><title>13</title><path class="cls-1" d="M50.59,48.49v6.09a3.32,3.32,0,0,1-3.32,3.32H8.33A3.32,3.32,0,0,1,5,54.58V29.16a3.32,3.32,0,0,1,3.32-3.32H42.14" transform="translate(-4.26 -17.71)"/><line class="cls-1" x1="0.75" y1="16.13" x2="35.64" y2="16.13"/><line class="cls-1" x1="7.17" y1="24.16" x2="23.54" y2="24.16"/><circle class="cls-1" cx="51.03" cy="16.13" r="15.38"/><line class="cls-1" x1="48.78" y1="23.74" x2="48.78" y2="9.15"/><line class="cls-1" x1="46.57" y1="20.38" x2="53.76" y2="20.38"/><path class="cls-1" d="M53,26.58h4a3.81,3.81,0,0,1,3.8,3.8h0a4.2,4.2,0,0,1-4.19,4.19H53" transform="translate(-4.26 -17.71)"/></symbol><symbol id="icon-pay-credit" viewBox="0 0 41.67 41.19" fill="none"><title>15</title><path class="cls-1" d="M41.42,43.76V53.4a3.23,3.23,0,0,1-3.23,3.24H23.93A3.23,3.23,0,0,1,20.7,53.4V23.45a3.23,3.23,0,0,1,3.23-3.24h14" transform="translate(-19.95 -16.2)"/><line class="cls-1" x1="0.75" y1="32.83" x2="21.48" y2="32.83"/><circle class="cls-2" cx="11.34" cy="36.16" r="1.19"/><circle class="cls-1" cx="26.96" cy="14.71" r="13.96"/><line class="cls-1" x1="24.91" y1="21.62" x2="24.91" y2="8.37"/><line class="cls-1" x1="22.91" y1="18.57" x2="29.44" y2="18.57"/><path class="cls-1" d="M44.86,24.32h3.61a3.46,3.46,0,0,1,3.45,3.45h0a3.82,3.82,0,0,1-3.81,3.81H44.86" transform="translate(-19.95 -16.2)"/></symbol><symbol id="icon-pay-leasing" viewBox="0 0 65.25 41.12" fill="none"><title>14</title><rect class="cls-1" x="4.29" y="27.98" width="23.57" height="7.05" rx="3.27" ry="3.27" transform="translate(-26.45 8.17) rotate(-57.79)"/><rect class="cls-1" x="51.99" y="27.98" width="23.57" height="7.05" rx="3.27" ry="3.27" transform="translate(63.82 82.12) rotate(-122.21)"/><rect class="cls-1" x="19.25" y="42.49" width="4.56" height="7.65" rx="2.11" ry="2.11" transform="translate(27.25 -23.22) rotate(39.7)"/><rect class="cls-1" x="23.87" y="41.68" width="5.58" height="12.53" rx="2.59" ry="2.59" transform="translate(29.48 -26.12) rotate(39.7)"/><rect class="cls-1" x="27.45" y="46.84" width="5.58" height="10.88" rx="2.59" ry="2.59" transform="translate(33.06 -27.41) rotate(39.7)"/><rect class="cls-1" x="31.28" y="52.04" width="5.58" height="8.77" rx="2.59" ry="2.59" transform="translate(36.6 -28.9) rotate(39.7)"/><line class="cls-1" x1="8.07" y1="19.09" x2="12.78" y2="24.35"/><path class="cls-1" d="M36,58.5s9.17,4.16,11.35-1c0,0,5.35.12,4.62-4.37,0,0,4.37,1,4.37-3.89,0,0,5.11,1.1,3.41-4.25L40.11,31.77l-3.65.36-1.65,2.58A5.25,5.25,0,0,1,29.22,37h0a1.48,1.48,0,0,1-.92-2.25,68.31,68.31,0,0,1,4.45-6.27,24.32,24.32,0,0,1,3-2.85,8.54,8.54,0,0,1,4.82-1.79h0a20.55,20.55,0,0,1,5.19.37l10.62,2.14" transform="translate(-7.3 -20.15)"/><line class="cls-1" x1="16.21" y1="6.19" x2="25.45" y2="8.31"/><line class="cls-1" x1="52.42" y1="24.89" x2="57.63" y2="19.81"/><line class="cls-1" x1="49.02" y1="29.15" x2="39.18" y2="23.07"/><line class="cls-1" x1="44.65" y1="33.03" x2="35.78" y2="27.8"/><line class="cls-1" x1="40.03" y1="37.41" x2="33.96" y2="33.88"/></symbol><symbol id="icon-phone" viewBox="0 0 16 17" fill="none">
<path d="M11.4996 17C10.9831 17 10.471 16.903 9.97022 16.7097C7.76413 15.8582 5.7164 14.4714 4.04834 12.6991C2.38028 10.9268 1.07503 8.75106 0.273652 6.40708C0.0161317 5.6538 -0.0598652 4.87621 0.0478491 4.09584C0.148751 3.36487 0.41524 2.65524 0.818536 2.04367C1.22361 1.4294 1.76365 0.918494 2.38025 0.56619C3.03779 0.190512 3.75548 0 4.51345 0C4.74919 0 4.95293 0.175007 5.00233 0.419903L5.78711 4.31112C5.82264 4.48732 5.77168 4.67066 5.65177 4.79809L4.3108 6.22284C5.57581 8.89512 7.62848 11.0761 10.1436 12.4201L11.4845 10.9954C11.6044 10.868 11.777 10.8139 11.9428 10.8516L15.6051 11.6854C15.8357 11.7379 16.0003 11.9544 16.0003 12.2048C16.0003 13.0102 15.821 13.7728 15.4674 14.4714C15.1359 15.1265 14.655 15.7003 14.0769 16.1307C13.5013 16.5592 12.8334 16.8424 12.1454 16.9496C11.9298 16.9832 11.7143 17 11.4996 17ZM4.11396 1.0857C3.11416 1.20297 2.22676 1.75976 1.63747 2.65339C0.974811 3.65824 0.820286 4.89417 1.21352 6.04435C2.75421 10.5507 6.07035 14.0741 10.3116 15.7111C11.3941 16.1289 12.5574 15.9647 13.5031 15.2606C14.3442 14.6345 14.8682 13.6916 14.9786 12.6294L11.9993 11.951L10.5989 13.439C10.4498 13.5974 10.2234 13.6394 10.0327 13.5442C7.05815 12.0594 4.65038 9.50115 3.25294 6.34067C3.16335 6.13804 3.20291 5.89746 3.35193 5.73916L4.75237 4.25119L4.11396 1.0857Z" fill="currentColor"/>
<path d="M15.4999 9.03088C15.2238 9.03088 14.9999 8.79302 14.9999 8.49965C14.9999 4.39877 11.8599 1.06246 8.00022 1.06246C7.72411 1.06246 7.50024 0.824599 7.50024 0.531228C7.50024 0.237857 7.72411 0 8.00022 0C10.137 0 12.1459 0.884097 13.6569 2.48947C15.1678 4.09484 15.9999 6.22928 15.9999 8.49965C15.9999 8.79302 15.7761 9.03088 15.4999 9.03088Z" fill="currentColor"/>
<path d="M13.5 9.03097C13.2239 9.03097 13 8.79311 13 8.49974C13 5.57055 10.7571 3.18746 8.00022 3.18746C7.72411 3.18746 7.50024 2.9496 7.50024 2.65623C7.50024 2.36286 7.72411 2.125 8.00022 2.125C11.3085 2.125 14 4.9847 14 8.49974C14 8.79311 13.7761 9.03097 13.5 9.03097Z" fill="currentColor"/>
<path d="M11.5001 9.03081C11.224 9.03081 11.0001 8.79295 11.0001 8.49958C11.0001 6.74205 9.65438 5.31221 8.00022 5.31221C7.72411 5.31221 7.50024 5.07436 7.50024 4.78098C7.50024 4.48761 7.72411 4.24976 8.00022 4.24976C10.2058 4.24976 12.0001 6.1562 12.0001 8.49958C12.0001 8.79295 11.7762 9.03081 11.5001 9.03081Z" fill="currentColor"/>
</symbol><symbol id="icon-search" viewBox="0 0 17 18" fill="none">
<path d="M6.01554 11.8771C8.98943 11.8771 11.4003 9.46627 11.4003 6.49238C11.4003 3.51848 8.98943 1.10767 6.01554 1.10767C3.04165 1.10767 0.630829 3.51848 0.630829 6.49238C0.630829 9.46627 3.04165 11.8771 6.01554 11.8771Z" stroke="currentColor" stroke-miterlimit="10"/>
<path d="M10.3863 9.64429L15.3229 14.8968C15.511 15.0979 15.6119 15.3652 15.6036 15.6405C15.5954 15.9157 15.4786 16.1765 15.2789 16.366V16.366C15.0777 16.554 14.8104 16.6549 14.5352 16.6467C14.2599 16.6384 13.9991 16.5217 13.8096 16.3219L8.87305 11.0694" stroke="currentColor" stroke-miterlimit="10"/>
</symbol><symbol id="icon-signin" viewBox="0 0 14.29 16.09" fill="none"><ellipse cx="7.11" cy="4.22" rx="2.94" ry="3.72" fill="none" stroke="#aaa" stroke-linecap="round" stroke-miterlimit="10"/><path d="M4.5,9s-4.22,1.84-4,3.64,2.9,2.95,6.6,2.94,6.35-.9,6.66-2.67-4.12-4-4.12-4" fill="none" stroke="#aaa" stroke-linecap="round" stroke-miterlimit="10"/></symbol><symbol id="icon-skype" viewBox="0 0 17 17" fill="none">
<path d="M12.002 17C11.2565 17 10.518 16.8348 9.85173 16.5205C9.37794 16.5982 8.97042 16.6348 8.58366 16.6348C4.08865 16.6348 0.431641 13.022 0.431641 8.58132C0.431641 8.1489 0.474571 7.69897 0.562378 7.21286C0.193771 6.51287 0 5.73156 0 4.93728C0 2.21488 2.24251 0 4.99902 0C5.85685 0 6.69497 0.216599 7.43841 0.628525C7.77705 0.584946 8.14761 0.564453 8.58366 0.564453C10.7557 0.564453 12.7947 1.39622 14.3251 2.90631C15.8573 4.41848 16.7012 6.43401 16.7012 8.58158C16.7012 9.15057 16.6624 9.63319 16.58 10.0795C16.8589 10.7024 17 11.3684 17 12.0627C17 14.7851 14.7579 17 12.002 17ZM10.0615 15.1341L10.2655 15.2426C10.7934 15.5234 11.3939 15.6719 12.002 15.6719C14.0256 15.6719 15.6719 14.0528 15.6719 12.0627C15.6719 11.4984 15.5444 10.9608 15.2928 10.4648L15.1849 10.2519L15.2371 10.0189C15.3299 9.60595 15.373 9.14928 15.373 8.58158C15.373 4.89331 12.3273 1.89258 8.58366 1.89258C8.11622 1.89258 7.74502 1.91852 7.41519 1.97442L7.16734 2.01631L6.95385 1.88363C6.36916 1.52021 5.69317 1.32812 4.99902 1.32812C2.97492 1.32812 1.32812 2.94717 1.32812 4.93728C1.32812 5.57929 1.50192 6.2095 1.83071 6.75982L1.96313 6.98161L1.911 7.23465C1.80918 7.72738 1.75977 8.16784 1.75977 8.58132C1.75977 12.2897 4.82094 15.3066 8.58366 15.3066C8.9472 15.3066 9.3446 15.265 9.83435 15.1756L10.0615 15.1341ZM12.7832 10.3216C12.7832 9.84408 12.6889 9.43345 12.5008 9.10116C12.3128 8.77029 12.0483 8.49326 11.7156 8.27705C11.3885 8.06538 10.9871 7.88406 10.5234 7.73568C10.0651 7.59029 9.54681 7.45644 8.983 7.33595C8.53683 7.23348 8.2122 7.15372 8.01868 7.10067C7.82958 7.04892 7.64152 6.97551 7.45812 6.88446C7.28134 6.79665 7.14217 6.69095 7.04205 6.57162C6.94866 6.45775 6.87305 6.32623 6.87305 6.16852C6.87305 5.9108 7.04451 5.69369 7.33569 5.50446C7.63698 5.30757 8.04294 5.22612 8.54228 5.22612C9.07937 5.22612 9.47197 5.29862 9.70569 5.47527C9.94706 5.65659 10.1573 5.91547 10.3307 6.24426C10.481 6.50107 10.6164 6.68018 10.7468 6.79484C10.887 6.91753 11.0895 6.97266 11.3474 6.97266C11.6311 6.97266 11.8725 6.88044 12.0626 6.68343C12.2527 6.48745 12.3848 6.26229 12.3848 6.01482C12.3848 5.75815 12.275 5.49252 12.1304 5.2256C11.9868 4.96088 11.7601 4.70667 11.4531 4.46803C11.1494 4.23145 10.7614 4.04015 10.3031 3.89838C9.84602 3.75636 9.29856 3.68555 8.676 3.68555C7.89845 3.68555 7.21014 3.79229 6.63284 4.00513C6.04673 4.22017 5.59084 4.53547 5.28046 4.93845C4.96581 5.34467 4.78125 5.81638 4.78125 6.33998C4.78125 6.88939 4.9579 7.35527 5.25699 7.7279C5.55193 8.09391 5.95412 8.38651 6.45477 8.59818C6.94296 8.80428 7.55669 8.9865 8.27977 9.14072C8.81141 9.25239 9.24162 9.35822 9.55874 9.45615C9.8612 9.54966 10.1126 9.68701 10.3028 9.86366C10.483 10.0315 10.5817 10.2465 10.5817 10.5201C10.5817 10.8659 10.4017 11.1495 10.0547 11.3848C9.69998 11.6256 9.22826 11.7207 8.65227 11.7207C8.23282 11.7207 7.89262 11.6876 7.64009 11.5682C7.38873 11.4511 7.19185 11.2989 7.05605 11.1201C6.91273 10.932 6.77824 10.6959 6.65476 10.4142C6.54452 10.1567 6.40794 9.95601 6.2466 9.82112C6.07864 9.68027 5.87202 9.5957 5.63286 9.5957C5.34168 9.5957 5.09694 9.69933 4.9055 9.87728C4.71316 10.0573 4.61523 10.2778 4.61523 10.5312C4.61523 10.9376 4.7653 11.3587 5.06231 11.7821C5.35374 12.2019 5.74064 12.543 6.20885 12.7942C6.8628 13.1399 7.70248 13.3145 8.70337 13.3145C9.5363 13.3145 10.2694 13.1862 10.8797 12.9342C11.497 12.6798 11.9728 12.3207 12.2954 11.867C12.6191 11.4121 12.7826 10.8922 12.7832 10.3216Z" fill="#0C4475"/>
</symbol><symbol id="icon-star" viewBox="0 0 11 10" fill="none">
<path d="M5.68953 8.19556L7.85666 9.56858C8.13368 9.74407 8.47765 9.48307 8.39545 9.15969L7.76931 6.69659C7.75167 6.62799 7.75375 6.55581 7.77532 6.48834C7.79688 6.42087 7.83705 6.36086 7.89121 6.3152L9.8346 4.69773C10.0899 4.48521 9.95814 4.06141 9.63007 4.04014L7.09216 3.87539C7.02381 3.87051 6.95824 3.84632 6.9031 3.80562C6.84797 3.76492 6.80553 3.7094 6.78073 3.64551L5.83421 1.26191C5.80848 1.19409 5.76273 1.13571 5.70304 1.09451C5.64334 1.05331 5.57253 1.03125 5.5 1.03125C5.42747 1.03125 5.35665 1.05331 5.29696 1.09451C5.23727 1.13571 5.19152 1.19409 5.16579 1.26191L4.21927 3.64547C4.19447 3.70935 4.15203 3.76488 4.09689 3.80558C4.04176 3.84627 3.97619 3.87047 3.90783 3.87535L1.36993 4.04009C1.04186 4.06136 0.910076 4.48516 1.1654 4.69769L3.10879 6.31516C3.16294 6.36081 3.20311 6.42083 3.22468 6.48829C3.24624 6.55576 3.24833 6.62795 3.23069 6.69655L2.65001 8.98077C2.5514 9.36882 2.96411 9.68202 3.29652 9.47147L5.31046 8.19551C5.3671 8.15946 5.43286 8.14031 5.5 8.14031C5.56714 8.14031 5.63289 8.15946 5.68953 8.19551V8.19556Z" fill="currentColor"/>
<path d="M8.04646 9.96802C7.91403 9.96789 7.78438 9.93005 7.67267 9.85892L5.50559 8.4859C5.50397 8.4847 5.50201 8.48405 5.5 8.48405C5.49799 8.48405 5.49603 8.4847 5.49441 8.4859L3.48047 9.7619C3.35064 9.84478 3.19882 9.88654 3.04487 9.8817C2.89092 9.87686 2.74202 9.82566 2.61766 9.73479C2.4889 9.64155 2.39131 9.5116 2.33764 9.36197C2.28397 9.21233 2.27673 9.04998 2.31687 8.89616L2.8976 6.61195C2.89916 6.60625 2.89918 6.60024 2.89765 6.59454C2.89611 6.58884 2.89308 6.58365 2.88887 6.5795L0.945483 4.96199C0.834725 4.86997 0.754297 4.74669 0.714711 4.60824C0.675124 4.4698 0.67822 4.32263 0.723593 4.18597C0.76635 4.05116 0.84878 3.93237 0.960112 3.84514C1.07144 3.75791 1.2065 3.7063 1.34763 3.69703L3.88558 3.53233C3.88894 3.53151 3.89203 3.5298 3.89452 3.52739C3.89701 3.52499 3.89882 3.52196 3.89976 3.51863L4.84636 1.13498C4.89751 1.00319 4.98729 0.88994 5.10394 0.810085C5.22059 0.73023 5.35866 0.6875 5.50002 0.6875C5.64139 0.6875 5.77945 0.73023 5.8961 0.810085C6.01275 0.88994 6.10254 1.00319 6.15368 1.13498L7.10028 3.51858C7.10121 3.52191 7.103 3.52494 7.10548 3.52736C7.10795 3.52977 7.11102 3.53149 7.11438 3.53233L9.65237 3.69703C9.79349 3.70629 9.92853 3.7579 10.0399 3.84512C10.1512 3.93233 10.2336 4.05109 10.2764 4.18589C10.3218 4.32255 10.3249 4.46971 10.2853 4.60816C10.2457 4.7466 10.1653 4.86989 10.0545 4.9619L8.11121 6.57938C8.10698 6.58352 8.10394 6.58872 8.1024 6.59445C8.10087 6.60017 8.1009 6.6062 8.10249 6.6119L8.72863 9.07496C8.76494 9.21424 8.75835 9.36125 8.70973 9.49673C8.66111 9.63221 8.57271 9.74985 8.45612 9.83426C8.33714 9.92099 8.19374 9.96781 8.0465 9.96798L8.04646 9.96802ZM5.5 7.79737C5.63219 7.7972 5.76172 7.83458 5.87348 7.90518L8.04066 9.2782C8.04257 9.27953 8.04467 9.28059 8.04689 9.28134C8.05216 9.27869 8.05668 9.27476 8.06003 9.26991C8.06244 9.26615 8.0639 9.26187 8.06429 9.25742C8.06469 9.25298 8.06401 9.24851 8.06231 9.24438L7.43617 6.78129C7.40283 6.64976 7.4072 6.5115 7.44879 6.38234C7.49038 6.25318 7.56751 6.13835 7.67134 6.05099L9.61469 4.43352C9.61991 4.42959 9.62357 4.42394 9.62504 4.41757C9.6265 4.4112 9.62566 4.40452 9.62268 4.39871C9.61782 4.3838 9.61275 4.38346 9.60781 4.38316L7.06986 4.21846C6.9367 4.20895 6.80893 4.16202 6.70126 4.0831C6.59359 4.00417 6.5104 3.89644 6.46125 3.77231L5.51465 1.38875C5.50924 1.375 5.50576 1.375 5.5 1.375C5.49424 1.375 5.49076 1.375 5.4853 1.38875L4.5387 3.77236C4.48954 3.89647 4.40634 4.00418 4.29868 4.0831C4.19101 4.16202 4.06325 4.20894 3.93009 4.21846L1.39219 4.38316C1.38725 4.38346 1.38217 4.3838 1.37732 4.39871C1.37434 4.40452 1.3735 4.4112 1.37496 4.41757C1.37642 4.42394 1.38009 4.42959 1.38531 4.43352L3.3287 6.05103C3.43252 6.13839 3.50963 6.25322 3.55122 6.38237C3.59281 6.51151 3.5972 6.64976 3.56387 6.78129L2.98319 9.0655C2.97668 9.08589 2.97686 9.10783 2.98371 9.12811C2.99056 9.14839 3.00372 9.16595 3.02126 9.17821C3.03393 9.18888 3.04982 9.19496 3.06637 9.19549C3.08291 9.19602 3.09916 9.19097 3.11248 9.18113L5.12651 7.90518C5.23828 7.83456 5.3678 7.79716 5.5 7.79732V7.79737Z" fill="#ECC844"/>
</symbol><symbol id="icon-telegram" viewBox="0 0 19 16" fill="none">
<path d="M0.315524 7.7694L4.78653 9.99767C4.95946 10.083 5.16362 10.0769 5.32893 9.98015L9.30858 7.66656L6.89977 9.80112C6.77712 9.91006 6.70703 10.0655 6.70703 10.2293V15.4285C6.70703 15.977 7.40713 16.2079 7.73546 15.7721L9.66815 13.2026L14.4477 15.9245C14.7829 16.1172 15.2125 15.9237 15.2902 15.5405L18.2712 0.685414C18.3603 0.238999 17.9162 -0.125142 17.5033 0.0409308L0.362755 6.72573C-0.0973722 6.90552 -0.127082 7.54924 0.315524 7.7694ZM16.9456 1.48531L14.3258 14.5403L9.7969 11.9608C9.55007 11.8199 9.2324 11.8824 9.05719 12.114L7.84973 13.7191V10.486L14.3639 4.71458C14.8796 4.25826 14.287 3.44694 13.6981 3.7928L5.02117 8.83745L1.98006 7.32222L16.9456 1.48531Z" fill="#0C4475"/>
</symbol><symbol id="icon-tooth" viewBox="0 0 26.25 29.14" fill="none"><path d="M0,8.65a19.57,19.57,0,0,1,.38-2,9.42,9.42,0,0,1,2.9-4.9A6.74,6.74,0,0,1,12.6,2c1.6,1.62,3,3.37,4.58,5.06.28.31.23.53-.1.76a1.2,1.2,0,0,1-1.7-.14l-.06-.08C14.14,6.29,13,4.93,11.74,3.66A5.26,5.26,0,0,0,4.32,3.2a5.38,5.38,0,0,0-.66.69A8.09,8.09,0,0,0,1.73,8.73a27,27,0,0,0,1.06,7.8A38.37,38.37,0,0,0,6,24.84a16.09,16.09,0,0,0,1.09,1.6,2.74,2.74,0,0,0,.57.56c.44.33.77.25,1-.26s.33-1.12.49-1.68c.25-.85.48-1.71.74-2.56.08-.28.23-.55.34-.83a4.19,4.19,0,0,1,4.1-2.7H15.7c.44,0,.48.09.54.44.33,1.88.68,3.75,1,5.63a12.63,12.63,0,0,0,.43,1.52c.23.73.62.84,1.17.29a6.4,6.4,0,0,0,1-1.31,31.5,31.5,0,0,0,2.83-6.43A36.36,36.36,0,0,0,24.56,11a9.19,9.19,0,0,0-1.42-6.51,5.57,5.57,0,0,0-4.29-2.57,5.77,5.77,0,0,0-2.48.6.43.43,0,0,1-.62-.25A1.28,1.28,0,0,1,16.24.54a1.48,1.48,0,0,1,.29-.12A6.23,6.23,0,0,1,23.36,2a9.48,9.48,0,0,1,2.83,6.05,22.67,22.67,0,0,1-.91,8.11A39.24,39.24,0,0,1,21.4,26.27a9.2,9.2,0,0,1-1.45,2c-1.37,1.4-3.17,1-3.72-.85a60.48,60.48,0,0,1-1.37-6c-.18-.86-.13-.88-1-.79a2.52,2.52,0,0,0-2,1.5,25.89,25.89,0,0,0-1.08,2.94c-.19.59-.31,1.19-.47,1.79a2.7,2.7,0,0,1-2.15,2.28H8a4.23,4.23,0,0,1-2.59-2c-.15-.23-.31-.45-.44-.69A41.9,41.9,0,0,1,.32,12.68C.2,11.91.13,11.14,0,10.36,0,9.79,0,9.22,0,8.65Z" fill="#004278"/><path d="M21.47,7.68a.65.65,0,0,0-.88.21,7.14,7.14,0,0,1-9.85,2.26,6.42,6.42,0,0,1-.6-.42.64.64,0,0,0-.79,1A8.42,8.42,0,0,0,21.17,9.29a5.3,5.3,0,0,0,.51-.73A.64.64,0,0,0,21.47,7.68Z" fill="currentColor"/><path d="M14.53,12.75A8.61,8.61,0,0,1,9.2,10.92a.88.88,0,0,1,1.08-1.38h0A6.94,6.94,0,0,0,20,8.32c.14-.18.26-.36.38-.55A.85.85,0,0,1,21,7.38a.89.89,0,0,1,.66.11h0a.87.87,0,0,1,.28,1.2,8.63,8.63,0,0,1-7.35,4.06ZM9.74,9.82a.49.49,0,0,0-.32.16.41.41,0,0,0,.07.58h0A8.22,8.22,0,0,0,21,9.14a6.45,6.45,0,0,0,.47-.69.41.41,0,0,0-.13-.56h0A.4.4,0,0,0,20.8,8l0,0a7.36,7.36,0,0,1-10.15,2.34A5.47,5.47,0,0,1,10,9.91.45.45,0,0,0,9.74,9.82Z" fill="currentColor"/></symbol><symbol id="icon-user-cart" viewBox="0 0 25.04 22.87" fill="none"><polyline points="0.75 0.75 6.04 0.75 7.2 19.2 21.09 19.2" fill="none" stroke="currentColor" stroke-linecap="round" stroke-linejoin="round" stroke-width="1.5"/><polyline points="7.17 16.08 21.92 16.08 24.29 6.04 6.59 6.04" fill="none" stroke="currentColor" stroke-linecap="round" stroke-linejoin="round" stroke-width="1.5"/><circle cx="10.33" cy="21.22" r="1.65" fill="currentColor"/><circle cx="18.61" cy="21.22" r="1.65" fill="currentColor"/></symbol><symbol id="icon-user-compare" viewBox="0 0 19.26 22.87" fill="none"><line x1="1.25" y1="22.87" x2="1.25" y2="6.03" fill="none" stroke="currentColor" stroke-miterlimit="10" stroke-width="2.5"/><line x1="9.63" y1="22.87" x2="9.63" fill="none" stroke="currentColor" stroke-miterlimit="10" stroke-width="2.5"/><line x1="18.01" y1="22.87" x2="18.01" y2="11.89" fill="none" stroke="currentColor" stroke-miterlimit="10" stroke-width="2.5"/></symbol><symbol id="icon-user-favorits" viewBox="0 0 24.9 20.89" fill="none"><path d="M12.41,5.58C10.58.22,4.14-1,1.57,3.54-2.9,11.41,12.41,20.09,12.41,20.09" fill="none" stroke="currentColor" stroke-linecap="round" stroke-linejoin="round" stroke-width="1.5"/><path d="M12.49,5.63c1.83-5.36,8.27-6.58,10.85-2,4.46,7.87-10.85,16.55-10.85,16.55" fill="none" stroke="currentColor" stroke-linecap="round" stroke-linejoin="round" stroke-width="1.5"/></symbol><symbol id="icon-user-viewed" viewBox="0 0 29.42 16.59" fill="none"><path d="M.75,8.28s12.72-16.95,27.92,0" fill="none" stroke="currentColor" stroke-linecap="round" stroke-linejoin="round" stroke-width="1.5"/><path d="M.75,8.31s12.72,17,27.92,0" fill="none" stroke="currentColor" stroke-linecap="round" stroke-linejoin="round" stroke-width="1.5"/><circle cx="14.71" cy="8.28" r="4.19" fill="none" stroke="currentColor" stroke-linecap="round" stroke-linejoin="round" stroke-width="1.5"/></symbol><symbol id="icon-viber" viewBox="0 0 19 20" fill="none">
<path d="M18.13 11.5783C18.7261 6.56022 17.8436 3.39218 16.2517 1.95928L16.2525 1.95845C13.6831 -0.488562 5.00575 -0.850743 1.93179 2.06835C0.551344 3.49626 0.0651064 5.59191 0.0118201 8.18629C-0.0414663 10.7815 -0.104744 15.643 4.42543 16.9619H4.42959L4.42543 18.9759C4.42543 18.9759 4.39462 19.7919 4.91583 19.9559C5.51197 20.1491 5.78173 19.7702 7.63593 17.5555C10.7365 17.8245 13.1178 17.2083 13.3884 17.1184C14.0145 16.9086 17.5572 16.4398 18.13 11.5783ZM7.94149 16.1384C7.94149 16.1384 5.97906 18.5854 5.36876 19.2207C5.16894 19.4272 4.94996 19.4081 4.95329 18.9984C4.95329 18.7295 4.96828 15.6547 4.96828 15.6547C1.1275 14.554 1.35397 10.4143 1.3956 8.24873C1.43723 6.08231 1.83355 4.30804 3.00252 3.11326C5.6993 0.584658 13.3068 1.14999 15.2451 2.97172C17.6146 5.07237 16.7712 11.0071 16.7762 11.2095C16.2891 15.2675 13.4183 15.5248 12.8905 15.7005C12.6648 15.7754 10.5708 16.3141 7.94149 16.1384Z" fill="#0C4475"/>
<path d="M9.02717 3.58862C8.70662 3.58862 8.70662 4.08818 9.02717 4.09235C11.5141 4.1115 13.5623 5.84497 13.5848 9.02466C13.5848 9.3602 14.0761 9.35604 14.0719 9.0205H14.0711C14.0444 5.59435 11.8081 3.60777 9.02717 3.58862Z" fill="#0C4475"/>
<path d="M12.2985 8.49761C12.291 8.82899 12.7814 8.84481 12.7855 8.50927C12.8263 6.6201 11.6615 5.06398 9.47263 4.89995C9.15208 4.87664 9.11878 5.38036 9.4385 5.40368C11.3368 5.54772 12.3368 6.84324 12.2985 8.49761Z" fill="#0C4475"/>
<path d="M11.7739 10.6466C11.3626 10.4085 10.9438 10.5567 10.7707 10.7907L10.4085 11.2594C10.2245 11.4975 9.88061 11.4659 9.88061 11.4659C7.37115 10.8023 6.70008 8.17629 6.70008 8.17629C6.70008 8.17629 6.66927 7.82077 6.89907 7.63011L7.352 7.25544C7.57847 7.0756 7.72168 6.64264 7.49105 6.21719C6.87492 5.104 6.46112 4.72017 6.25047 4.42543C6.029 4.14818 5.69596 4.08573 5.3496 4.27307H5.34211C4.62191 4.69436 3.83344 5.48283 4.08572 6.29462C4.51617 7.15053 5.30714 9.87896 7.82825 11.9405C9.01304 12.9154 10.8881 13.9146 11.684 14.1452L11.6915 14.1569C12.4758 14.4183 13.2385 13.599 13.6456 12.8572V12.8513C13.8263 12.4925 13.7663 12.1528 13.5024 11.9305C13.0345 11.4742 12.3284 10.9705 11.7739 10.6466Z" fill="#0C4475"/>
<path d="M9.8157 6.75841C10.6158 6.80503 11.0038 7.223 11.0455 8.0814C11.0604 8.41694 11.5475 8.39363 11.5325 8.05809C11.4792 6.93741 10.8948 6.31296 9.84235 6.25468C9.5218 6.23553 9.49182 6.73926 9.8157 6.75841Z" fill="#0C4475"/>
</symbol><symbol id="icon-vk" viewBox="0 0 37.27 20.94" fill="none"><path d="M31.91,13.26,37,19a1.15,1.15,0,0,1-.86,1.9H30.4A3.54,3.54,0,0,1,28,20L26.3,18.42c-1.9-1.66-2.71-2.23-3.46-2.23s-.95.57-.95,2-.29,2.71-4.66,2.71S9.45,17.66,5.6,12.58A39,39,0,0,1,.05,2a1.07,1.07,0,0,1,1-1.38H5.61A2.23,2.23,0,0,1,7.63,2a43.15,43.15,0,0,0,2.1,3.89,11.85,11.85,0,0,0,3.9,4.29.48.48,0,0,0,.71-.41V3.45a3.4,3.4,0,0,0-.84-2.23L12.86.49A.3.3,0,0,1,13.09,0h7.18a2,2,0,0,1,2,2V9.28a.47.47,0,0,0,.86.26l5.18-7.8a2.19,2.19,0,0,1,1.83-1h6.07a1.05,1.05,0,0,1,.89,1.62l-5.37,8.53A2,2,0,0,0,31.91,13.26Z" fill="currentColor"/></symbol><symbol id="icon-whatsapp" viewBox="0 0 27 26" fill="none">
<path d="M13.5034 0H13.4966C6.05306 0 0 5.8305 0 13C0 15.8438 0.95175 18.4795 2.57006 20.6196L0.887625 25.4491L6.07669 23.8518C8.21138 25.2135 10.7578 26 13.5034 26C20.9469 26 27 20.1679 27 13C27 5.83213 20.9469 0 13.5034 0Z" fill="#4CAF50"/>
<path d="M21.3587 18.3575C21.033 19.2432 19.7404 19.9777 18.7093 20.1922C18.0039 20.3368 17.0826 20.4522 13.9809 19.2139C10.0136 17.6312 7.45874 13.749 7.25962 13.4972C7.06893 13.2453 5.65649 11.4416 5.65649 9.57605C5.65649 7.71055 6.64031 6.80218 7.03687 6.41218C7.36256 6.09205 7.90087 5.9458 8.41724 5.9458C8.58431 5.9458 8.73449 5.95393 8.86949 5.96043C9.26606 5.97668 9.46518 5.99943 9.72674 6.6023C10.0524 7.35793 10.8456 9.22343 10.9401 9.41518C11.0362 9.60693 11.1324 9.86693 10.9974 10.1188C10.8709 10.3788 10.7595 10.4942 10.5604 10.7152C10.3612 10.9362 10.1722 11.1052 9.97312 11.3424C9.79087 11.5488 9.58499 11.7698 9.81449 12.1517C10.044 12.5254 10.8371 13.7718 12.0049 14.7728C13.5118 16.0647 14.7336 16.4774 15.1706 16.6529C15.4963 16.7829 15.8844 16.7521 16.1224 16.5083C16.4244 16.1947 16.7974 15.6747 17.1771 15.1628C17.4471 14.7956 17.7879 14.75 18.1457 14.88C18.5102 15.0019 20.439 15.92 20.8356 16.1102C21.2321 16.3019 21.4937 16.3929 21.5899 16.5538C21.6844 16.7147 21.6844 17.4703 21.3587 18.3575Z" fill="#FAFAFA"/>
</symbol><symbol id="icon-youtube" viewBox="0 0 28.63 20.82" fill="none"><rect width="28.63" height="20.82" rx="3.56" fill="currentColor"/><path d="M10,16V4.84a.65.65,0,0,1,1-.56l9.56,5.57a.65.65,0,0,1,0,1.12L11,16.54A.65.65,0,0,1,10,16Z" fill="#fff"/></symbol></svg>