<?xml version="1.0" encoding="iso-8859-1"?>
<!-- Generator: Adobe Illustrator 18.1.1, SVG Export Plug-In . SVG Version: 6.00 Build 0)  -->
<svg version="1.1" id="Capa_1" xmlns="http://www.w3.org/2000/svg" xmlns:xlink="http://www.w3.org/1999/xlink" x="0px" y="0px"
	 viewBox="0 0 78 78" style="enable-background:new 0 0 78 78;" xml:space="preserve">
<g id="_x37_7_Essential_Icons_63_">
	<path id="Tablet" d="M61,0H17c-3.3,0-6,2.7-6,6v66c0,3.3,2.7,6,6,6h44c3.3,0,6-2.7,6-6V6C67,2.7,64.3,0,61,0z M63,72
		c0,1.1-0.9,2-2,2H17c-1.1,0-2-0.9-2-2v-4h48V72z M63,64H15V14h48V64z M63,10H15V6c0-1.1,0.9-2,2-2h44c1.1,0,2,0.9,2,2V10z"/>
</g>
<g>
</g>
<g>
</g>
<g>
</g>
<g>
</g>
<g>
</g>
<g>
</g>
<g>
</g>
<g>
</g>
<g>
</g>
<g>
</g>
<g>
</g>
<g>
</g>
<g>
</g>
<g>
</g>
<g>
</g>
</svg>
