<?xml version="1.0" encoding="iso-8859-1"?>
<!-- Generator: Adobe Illustrator 18.1.1, SVG Export Plug-In . SVG Version: 6.00 Build 0)  -->
<svg version="1.1" id="Capa_1" xmlns="http://www.w3.org/2000/svg" xmlns:xlink="http://www.w3.org/1999/xlink" x="0px" y="0px"
	 viewBox="0 0 80 80" style="enable-background:new 0 0 80 80;" xml:space="preserve">
<g id="_x37_7_Essential_Icons_12_">
	<path id="Computer" d="M74,7H6c-3.3,0-6,2.7-6,6v42c0,3.3,2.7,6,6,6h22v4.2c-0.1,0.4-0.9,1.5-1.3,2c-1.1,1.4-2.2,2.8-1.4,4.4
		c0.3,0.7,1.1,1.4,2.7,1.4h23c1,0,3.3,0,4.1-1.8c0.8-1.8-0.6-3.2-1.8-4.5c-0.4-0.5-1.1-1.2-1.3-1.6V61h22c3.3,0,6-2.7,6-6V13
		C80,9.7,77.3,7,74,7z M30.3,69c0.9-1.1,1.7-2.4,1.7-3.8V61h16v4.2c0,1.4,1,2.7,2,3.8H30.3z M76,55c0,1.1-0.9,2-2,2H6
		c-1.1,0-2-0.9-2-2v-6h72V55z M76,45H4V13c0-1.1,0.9-2,2-2h68c1.1,0,2,0.9,2,2V45z"/>
</g>
<g>
</g>
<g>
</g>
<g>
</g>
<g>
</g>
<g>
</g>
<g>
</g>
<g>
</g>
<g>
</g>
<g>
</g>
<g>
</g>
<g>
</g>
<g>
</g>
<g>
</g>
<g>
</g>
<g>
</g>
</svg>
