<svg width="25" height="25" viewBox="0 0 25 25" fill="none" xmlns="http://www.w3.org/2000/svg"><path clip-rule="evenodd" d="M25 12.5C25 19.404 19.404 25 12.5 25S0 19.404 0 12.5 5.596 0 12.5 0 25 5.596 25 12.5zM8.37 11.355c-1.252.547-2.538 1.108-3.715 1.756-.614.45.202.768.968 1.067.122.047.243.094.356.141l.287.09c.852.272 1.802.575 2.63.12 1.358-.781 2.64-1.683 3.921-2.585.42-.295.84-.59 1.262-.882l.066-.043c.36-.233 1.169-.757.87-.035-.708.774-1.466 1.46-2.228 2.148-.513.464-1.029.93-1.532 1.426-.438.356-.893 1.072-.402 1.57 1.13.791 2.278 1.563 3.425 2.335.373.25.746.502 1.119.754.631.504 1.618.096 1.757-.692l.185-1.087c.343-2.002.685-4.005.988-6.014.041-.316.088-.63.134-.946.114-.764.227-1.529.262-2.297-.091-.767-1.02-.598-1.538-.426-2.659 1.012-5.291 2.099-7.913 3.205l-.901.395z"/></svg>