<svg width="200" height="52" viewBox="0 0 200 52" fill="none" xmlns="http://www.w3.org/2000/svg"><path d="M67.62 33.922l1.14-9.96c0-.56-.14-1.02-.42-1.38-.26-.38-.73-.57-1.41-.57-.68 0-1.24.33-1.68.99-.44.64-.72 1.32-.84 2.04-.7 4.98-1.09 7.94-1.17 8.88h-4.02l1.65-14.1c.84-.22 1.48-.33 1.92-.33 1.26 0 1.95.42 2.07 1.26.98-.84 2.05-1.26 3.21-1.26 2.32 0 3.8.69 4.44 2.07.98-1.4 2.38-2.1 4.2-2.1 1.34 0 2.4.35 3.18 1.05.78.68 1.17 1.54 1.17 2.58 0 .3-.06.83-.18 1.59-.46 3-.69 4.76-.69 5.28 0 .94.31 1.41.93 1.41.52 0 1.07-.34 1.65-1.02.6-.7 1.08-1.77 1.44-3.21.68.72 1.09 1.29 1.23 1.71-1.04 3.48-2.88 5.22-5.52 5.22-1.24 0-2.16-.38-2.76-1.14-.6-.76-.9-1.56-.9-2.4l.72-6.63c0-.54-.14-.99-.42-1.35-.28-.36-.73-.54-1.35-.54-.6 0-1.13.23-1.59.69-.46.46-.78 1.05-.96 1.77-.6 5.08-.99 8.23-1.17 9.45h-3.87zm29.001.15c-1.84 0-3.06-.64-3.66-1.92-1.04 1.3-2.38 1.95-4.02 1.95-1.62 0-2.99-.55-4.11-1.65-1.1-1.1-1.65-2.55-1.65-4.35 0-2.62.77-4.71 2.31-6.27 1.54-1.56 3.49-2.34 5.85-2.34h.18c1 0 1.92.17 2.76.51.54-.34 1.19-.51 1.95-.51.78 0 1.34.1 1.68.3-.18 1.48-.37 2.94-.57 4.38-.2 1.42-.34 2.43-.42 3.03-.18 1.36-.27 2.34-.27 2.94 0 .8.32 1.2.96 1.2.5 0 1.03-.33 1.59-.99.56-.68 1.05-1.74 1.47-3.18.58.52.98 1.1 1.2 1.74-.58 1.9-1.36 3.24-2.34 4.02-.98.76-1.95 1.14-2.91 1.14zm-4.83-12.24c-1.28 0-2.3.49-3.06 1.47-.74.96-1.18 2.4-1.32 4.32-.02.18-.03.35-.03.51 0 .98.23 1.76.69 2.34.48.58 1.09.87 1.83.87 1.26 0 2.21-.89 2.85-2.67l.72-6.48c-.58-.24-1.14-.36-1.68-.36zm16.016 12.12c1.1 1.94 1.65 3.54 1.65 4.8 0 1.28-.39 2.31-1.17 3.09-.76.8-1.76 1.2-3 1.2s-2.26-.35-3.06-1.05c-.78-.68-1.17-1.63-1.17-2.85 0-.24.04-.72.12-1.44l.93-8.1c-1.18-1.58-2.15-2.84-2.91-3.78.68-.94 1.25-1.41 1.71-1.41.22 0 .42.11.6.33.2.22.53.63.99 1.23l1.14-10.08c.16-1.32.48-2.39.96-3.21.64-1.06 1.82-1.59 3.54-1.59 1.22 0 2.15.34 2.79 1.02.64.66.96 1.58.96 2.76 0 1.58-.52 3.14-1.56 4.68a19.282 19.282 0 01-3.57 4.05l-.75 7.23c.34.38.82.57 1.44.57 1.24 0 2.27-.52 3.09-1.56.84-1.06 1.57-2.55 2.19-4.47.28.16.57.37.87.63.32.24.5.41.54.51-.46 2.22-1.26 3.94-2.4 5.16-1.14 1.22-2.45 1.98-3.93 2.28zm1.41-20.25c-.1-.02-.2-.03-.3-.03-.54 0-.9.35-1.08 1.05-.18.7-.4 2.31-.66 4.83l-.12 1.14c.86-.88 1.55-1.81 2.07-2.79.54-1 .81-1.9.81-2.7 0-.82-.24-1.32-.72-1.5zm-4.02 24.78c-.02.1-.03.31-.03.63 0 .34.1.62.3.84.2.22.46.33.78.33.34 0 .64-.14.9-.42.26-.26.39-.67.39-1.23 0-1.06-.63-2.51-1.89-4.35l-.45 4.2zm14.709-4.53c1.1 1.94 1.65 3.54 1.65 4.8 0 1.28-.39 2.31-1.17 3.09-.76.8-1.76 1.2-3 1.2s-2.26-.35-3.06-1.05c-.78-.68-1.17-1.63-1.17-2.85 0-.24.04-.72.12-1.44l.93-8.1c-1.18-1.58-2.15-2.84-2.91-3.78.68-.94 1.25-1.41 1.71-1.41.22 0 .42.11.6.33.2.22.53.63.99 1.23l1.14-10.08c.16-1.32.48-2.39.96-3.21.64-1.06 1.82-1.59 3.54-1.59 1.22 0 2.15.34 2.79 1.02.64.66.96 1.58.96 2.76 0 1.58-.52 3.14-1.56 4.68a19.282 19.282 0 01-3.57 4.05l-.75 7.23c.34.38.82.57 1.44.57 1.24 0 2.27-.52 3.09-1.56.84-1.06 1.57-2.55 2.19-4.47.28.16.57.37.87.63.32.24.5.41.54.51-.46 2.22-1.26 3.94-2.4 5.16-1.14 1.22-2.45 1.98-3.93 2.28zm1.41-20.25c-.1-.02-.2-.03-.3-.03-.54 0-.9.35-1.08 1.05-.18.7-.4 2.31-.66 4.83l-.12 1.14c.86-.88 1.55-1.81 2.07-2.79.54-1 .81-1.9.81-2.7 0-.82-.24-1.32-.72-1.5zm-4.02 24.78c-.02.1-.03.31-.03.63 0 .34.1.62.3.84.2.22.46.33.78.33.34 0 .64-.14.9-.42.26-.26.39-.67.39-1.23 0-1.06-.63-2.51-1.89-4.35l-.45 4.2zm8.89-26.64a2.24 2.24 0 011.68-.72c.66 0 1.22.24 1.68.72.48.46.72 1.02.72 1.68 0 .66-.24 1.22-.72 1.68-.46.46-1.02.69-1.68.69-.66 0-1.22-.23-1.68-.69-.46-.46-.69-1.02-.69-1.68 0-.66.23-1.22.69-1.68zm-1.23 8.79c.2-.36.58-.63 1.14-.81.56-.2 1.11-.3 1.65-.3.56 0 1.05.07 1.47.21-.78 6.02-1.17 9.06-1.17 9.12-.1.4-.15.74-.15 1.02 0 .26.02.49.06.69.08.52.44.78 1.08.78.66 0 1.26-.42 1.8-1.26.56-.86.98-1.83 1.26-2.91.14.08.36.32.66.72.3.4.48.7.54.9-.4 1.6-1.08 2.89-2.04 3.87s-2.11 1.47-3.45 1.47c-1.34 0-2.34-.33-3-.99-.64-.66-.96-1.51-.96-2.55 0-.22.01-.45.03-.69l1.08-9.27zm14.443 9.93l.72-6.69c0-.54-.14-.99-.42-1.35-.28-.36-.75-.54-1.41-.54-.64 0-1.19.29-1.65.87-.44.56-.72 1.27-.84 2.13-.72 5.48-1.1 8.46-1.14 8.94h-4.05l1.65-14.13c.84-.22 1.48-.33 1.92-.33 1.34 0 2.04.49 2.1 1.47.98-.96 2.15-1.44 3.51-1.44 1.38 0 2.46.34 3.24 1.02.78.68 1.17 1.54 1.17 2.58 0 .28-.06.81-.18 1.59-.46 3.04-.69 4.81-.69 5.31 0 .92.31 1.38.93 1.38 1.36 0 2.39-1.42 3.09-4.26.68.72 1.09 1.29 1.23 1.71-1.06 3.52-2.9 5.28-5.52 5.28-1.24 0-2.16-.38-2.76-1.14-.6-.76-.9-1.56-.9-2.4zm9.707-.24a2.37 2.37 0 011.74-.72c.68 0 1.26.24 1.74.72s.72 1.06.72 1.74c0 .68-.24 1.26-.72 1.74-.48.46-1.06.69-1.74.69-.68 0-1.26-.23-1.74-.69-.46-.48-.69-1.06-.69-1.74 0-.68.23-1.26.69-1.74zm11.498-10.86c1.3 0 2.06.33 2.28.99.94-.66 2.13-.99 3.57-.99s2.68.59 3.72 1.77c1.04 1.18 1.56 2.56 1.56 4.14 0 .22-.01.45-.03.69-.22 2.62-1.1 4.62-2.64 6-1.54 1.36-3.55 2.04-6.03 2.04-.56 0-1.17-.07-1.83-.21l-.96 8.25h-3.93c1.28-11.02 2.14-18.5 2.58-22.44.42-.16.99-.24 1.71-.24zm6.9 6.12c0-.88-.2-1.66-.6-2.34-.4-.68-1.02-1.02-1.86-1.02-1.14 0-2.01.74-2.61 2.22-.4 2.96-.63 4.68-.69 5.16-.02.6.17 1.05.57 1.35.4.3.89.45 1.47.45 1.02 0 1.86-.46 2.52-1.38.8-1.14 1.2-2.62 1.2-4.44zm17.799 3.57c0 1.44.61 2.16 1.83 2.16h.09c.56 0 1.06-.3 1.5-.9.44-.6.77-1.35.99-2.25.48-1.84.72-3.51.72-5.01h-.27c-.84 0-1.49-.19-1.95-.57-.48-.44-.72-.97-.72-1.59 0-.62.19-1.12.57-1.5.46-.42 1.03-.63 1.71-.63 1.48 0 2.48.76 3 2.28 1.4-.34 2.88-.81 4.44-1.41v1.71c-1.48.56-2.86.99-4.14 1.29.02.16.03.39.03.69-.08 4.14-1.05 7.14-2.91 9-1.1 1.1-2.53 1.65-4.29 1.65-1.74 0-3.04-.74-3.9-2.22-.98 1.5-2.48 2.25-4.5 2.25-1.2 0-2.19-.42-2.97-1.26-.76-.86-1.14-1.87-1.14-3.03 0-.2.01-.44.03-.72.42-3.48.77-6.56 1.05-9.24.72-.24 1.35-.36 1.89-.36 1.42 0 2.13.49 2.13 1.47 0 .38-.15 1.69-.45 3.93-.38 2.82-.57 4.41-.57 4.77 0 .34.13.68.39 1.02.28.34.67.51 1.17.51.52 0 .98-.23 1.38-.69.4-.46.69-1.02.87-1.68l1.05-8.97c.64-.24 1.32-.36 2.04-.36 1.3 0 1.95.49 1.95 1.47 0 .36-.14 1.53-.42 3.51-.4 2.8-.6 4.36-.6 4.68zm3.9-8.16c0 .34.29.51.87.51h.18c-.14-.54-.35-.81-.63-.81s-.42.1-.42.3z" fill="#000"/><path d="M26.144 5.318c-2.593 0-4.624 1.65-4.624 3.757s2.03 3.758 4.624 3.758c2.593 0 4.623-1.65 4.623-3.758 0-2.107-2.03-3.757-4.623-3.757zm0 4.852c-1.105 0-1.961-.588-1.961-1.095 0-.506.856-1.094 1.96-1.094 1.105 0 1.962.588 1.962 1.094 0 .507-.857 1.095-1.961 1.095zM36.422 13.374c-1.239 0-2.52.571-3.515 1.567-.822.82-1.361 1.847-1.52 2.89-.177 1.175.153 2.282.907 3.036.615.615 1.471.954 2.41.954 1.239 0 2.52-.571 3.516-1.567.821-.821 1.36-1.848 1.519-2.89.178-1.176-.153-2.282-.906-3.036-.615-.615-1.471-.954-2.411-.954zm.684 3.59c-.072.479-.353.991-.769 1.408-.485.485-1.11.786-1.633.786-.161 0-.384-.03-.528-.174-.212-.212-.18-.598-.156-.754.072-.478.353-.99.77-1.406.484-.486 1.11-.787 1.632-.787.162 0 .384.03.528.174.212.212.18.598.156.754zM19.381 14.94c-.995-.995-2.277-1.566-3.515-1.566-.94 0-1.796.339-2.411.954-.754.754-1.084 1.86-.906 3.036.158 1.043.697 2.069 1.518 2.89.996.996 2.277 1.567 3.516 1.567.94 0 1.796-.339 2.41-.954.755-.754 1.085-1.86.907-3.036-.158-1.043-.697-2.069-1.519-2.89zm-1.797 4.218c-.523 0-1.148-.301-1.633-.787-.417-.416-.697-.929-.77-1.406-.023-.156-.055-.542.157-.754.144-.144.366-.174.528-.174.522 0 1.147.301 1.633.786.416.417.696.93.768 1.407.024.156.056.542-.156.754-.143.144-.366.174-.527.174z" fill="#3F2D20"/><path d="M41.29 8.816zM26.129 2.663zM45.529 16.546zM39.438 6.994zM37.004 5.344zM46.13 16.645zM37.822 5.83zM48.798 18.444zM48.479 18.043zM35.097 4.413zM48.38 17.934zM47.606 17.28zM46.69 16.816zM47.17 17.026zM3.03 22.817zM3.277 23.3zM2.812 22.172zM3.607 23.79zM2.701 21.6zM4.442 24.62zM49.063 18.86a4.483 4.483 0 00-2.176-.56H46.858a1.331 1.331 0 01-1.33-1.331 8.89 8.89 0 00-.012-.423 4.559 4.559 0 00-.404-.02l-.014-.002-.015.001a1.331 1.331 0 01-1.331-1.331c0-2.312-.889-4.478-2.43-6.339-3.235-2.7-8.05-4.417-13.418-4.417-9.716 0-17.622 5.621-17.622 12.531 0 .735-.596 1.331-1.331 1.331a4.518 4.518 0 00-4.513 4.513c0 .789.204 1.472.56 2.118.647.357 1.389.505 2.178.505h37.936c2.488 0 4.513-1.967 4.513-4.456 0-.789-.205-1.473-.563-2.12zm-29.069 2.007c-.615.615-1.471.954-2.41.954-1.24 0-2.52-.571-3.516-1.567-.822-.82-1.361-1.847-1.519-2.89-.178-1.175.152-2.282.906-3.036.615-.615 1.471-.954 2.41-.954 1.24 0 2.52.571 3.516 1.567.822.821 1.36 1.848 1.519 2.89.178 1.175-.152 2.282-.906 3.036zm6.15-8.034c-2.593 0-4.624-1.65-4.624-3.758 0-2.107 2.031-3.757 4.624-3.757 2.593 0 4.624 1.65 4.624 3.757s-2.032 3.758-4.624 3.758zm13.595 4.53c-.158 1.044-.698 2.07-1.519 2.891-.995.996-2.277 1.567-3.516 1.567-.939 0-1.795-.339-2.41-.954-.754-.754-1.084-1.86-.906-3.036.158-1.043.697-2.07 1.519-2.89.995-.996 2.277-1.567 3.515-1.567.94 0 1.796.339 2.41.954.755.754 1.085 1.86.907 3.036zM4.977 24.976zM27.531 2.706zM29.673 2.917zM30.985 3.15zM3.665 23.868zM32.011 3.383zM28.631 2.791zM34.164 4.047z" fill="#EF8829"/><path d="M27.488 8.313zM26.886 8.075c.048.012.092.028.138.042-.046-.014-.09-.03-.138-.042zM27.824 8.557zM27.208 8.18c.047.018.09.04.134.06-.044-.02-.087-.042-.134-.06zM27.902 8.638zM28.027 8.817zM25.086 9.974l-.07-.028.07.028zM24.495 9.627l.051.042-.051-.042zM24.766 9.821c-.018-.01-.034-.022-.052-.033l.052.033zM28.078 8.943a2.95 2.95 0 00-.933-.148c-1.104 0-1.96.588-1.96 1.094 0 .041.008.083.019.125.278.094.594.156.94.156 1.104 0 1.96-.588 1.96-1.094 0-.044-.014-.088-.026-.133zM24.236 9.293zM26.53 8.006c.042.006.082.016.123.023-.041-.007-.08-.017-.124-.023zM24.34 9.466c-.007-.008-.011-.017-.017-.025l.016.025zM37.11 16.581zM37.06 16.384c.008.02.013.043.02.065-.007-.022-.012-.044-.02-.065zM35.666 17.637c-.417.416-.697.929-.77 1.407a1.883 1.883 0 00-.011.101c.481-.059 1.022-.343 1.452-.774.416-.416.697-.929.769-1.406.004-.026.007-.065.01-.102-.48.06-1.02.344-1.45.774zM37.118 16.846c.002-.025.002-.048.002-.076 0 .026 0 .053-.002.076zM16.558 18.842zM16.214 18.603zM17.207 19.11zM16.862 18.993zM18.267 18.23c-.061-.405-.278-.832-.595-1.207a1.617 1.617 0 00-.367-.047c-.161 0-.384.03-.528.174-.212.212-.18.597-.156.754.061.403.272.872.587 1.246.128.031.255.09.376.09.161 0 .383-.071.527-.215.212-.212.18-.639.156-.795z" fill="#CE593F"/><path d="M10.201 30.038l3.067 12.501-2.165-12.501h-.902zM21.884 48.625h2.736V30.038h-4.7l1.964 18.587zM27.452 30.038v18.587h2.952l1.963-18.587h-4.915zM38.482 30.038H35.044l-1.963 18.587h2.158l3.55-20.436-.307 1.849zM43.249 30.038h-2.065l-3.243 18.587h.712l5.031-20.436-.435 1.849zM17.058 28.189l.186 1.849h-3.438l3.243 18.587h2.158l-2.15-20.436z" fill="#84BD93"/><path d="M46.35 13.972c-.383-3.673-2.49-7.065-6.032-9.655C36.51 1.533 31.472 0 26.129 0S15.747 1.533 11.941 4.317c-3.543 2.592-5.651 5.985-6.033 9.66C2.554 14.577 0 17.514 0 21.038c0 3.497 2.515 6.416 5.83 7.047l5.467 22.287c.146.595.68 1.014 1.293 1.014h27.108c.613 0 1.146-.419 1.293-1.014l5.466-22.287c3.316-.631 5.83-3.55 5.83-7.047 0-3.534-2.569-6.478-5.937-7.066zM19.207 48.724h-2.159l-3.55-20.51h3.56l2.15 20.51zm5.605-20.51v20.51h-2.928l-2.15-20.51h5.078zm2.663 0h5.078l-2.15 20.51h-2.928v-20.51zm7.755 0h3.56l-3.55 20.51h-2.16l2.15-20.51zm-24.434 0l3.55 20.51h-.712l-5.03-20.51h2.192zm27.145 20.51l3.55-20.51h2.193l-5.03 20.51h-.713zm7.171-23.173H7.176a4.518 4.518 0 01-4.513-4.513 4.518 4.518 0 014.513-4.513c.735 0 1.33-.596 1.33-1.331 0-6.91 7.906-12.531 17.623-12.531 9.717 0 17.623 5.621 17.623 12.53 0 .736.596 1.332 1.331 1.332H45.112a4.518 4.518 0 014.513 4.513 4.518 4.518 0 01-4.513 4.513z" fill="#3F2D20"/></svg>