<svg width="25" height="25" viewBox="0 0 25 25" fill="none" xmlns="http://www.w3.org/2000/svg"><path clip-rule="evenodd" d="M0 12.5C0 5.596 5.596 0 12.5 0S25 5.596 25 12.5 19.404 25 12.5 25 0 19.404 0 12.5zm13.154 4.102s.24-.026.364-.156c.113-.12.109-.344.109-.344s-.015-1.049.481-1.204c.49-.152 1.117 1.015 1.784 1.463.503.34.885.265.885.265l1.781-.024s.931-.056.49-.775c-.037-.059-.258-.532-1.324-1.504-1.117-1.017-.967-.852.378-2.612.819-1.072 1.146-1.726 1.044-2.006-.098-.267-.7-.196-.7-.196l-2.005.012s-.148-.02-.259.045c-.107.063-.177.211-.177.211s-.317.829-.74 1.534c-.893 1.488-1.25 1.567-1.396 1.475-.34-.216-.255-.866-.255-1.327 0-1.442.223-2.044-.433-2.2-.218-.051-.379-.085-.936-.09-.716-.008-1.32.002-1.664.166-.228.11-.404.354-.296.368.132.018.432.08.591.292.205.275.198.89.198.89s.118 1.698-.276 1.909c-.27.145-.64-.15-1.436-1.5-.408-.692-.716-1.456-.716-1.456s-.059-.143-.165-.22c-.129-.093-.308-.121-.308-.121l-1.905.012s-.286.008-.391.13c-.094.108-.007.333-.007.333s1.491 3.425 3.18 5.151c1.549 1.583 3.307 1.48 3.307 1.48h.797z"/></svg>