<svg width="25" height="25" viewBox="0 0 25 25" fill="none" xmlns="http://www.w3.org/2000/svg"><path clip-rule="evenodd" d="M12.5 0C5.596 0 0 5.596 0 12.5S5.596 25 12.5 25 25 19.404 25 12.5 19.404 0 12.5 0zM5.208 12.48c0-4.01 3.271-7.272 7.292-7.272 4.02 0 7.291 3.262 7.291 7.271a6.44 6.44 0 01-.153 1.49l-.002.007c0 .002-.053.214-.082.307-.18.575-.506 1.054-.943 1.384a2.467 2.467 0 01-1.676.49 2.372 2.372 0 01-1.822-1.085 3.687 3.687 0 01-6.301-2.592A3.687 3.687 0 0112.5 8.801a3.687 3.687 0 013.688 3.677v1.186c.003.692.469.974.866 1.006.396.03.923-.199 1.106-.95.09-.41.137-.829.137-1.242 0-3.187-2.6-5.78-5.797-5.78-3.196 0-5.797 2.593-5.797 5.78 0 3.188 2.6 5.78 5.797 5.78a5.784 5.784 0 003.13-.916l.016-.01.982 1.138-.02.015A7.263 7.263 0 0112.5 19.75c-4.02 0-7.292-3.261-7.292-7.27z"/><path clip-rule="evenodd" d="M14.693 12.48a2.193 2.193 0 01-4.386 0 2.193 2.193 0 014.387 0z"/></svg>