<?xml version="1.0" encoding="UTF-8"?><!DOCTYPE svg PUBLIC "-//W3C//DTD SVG 1.1//EN" "http://www.w3.org/Graphics/SVG/1.1/DTD/svg11.dtd"><svg xmlns="http://www.w3.org/2000/svg" xmlns:xlink="http://www.w3.org/1999/xlink"><symbol id="icon-arrow" viewBox="0 0 32 18"><path d="M32 9H2m0 0l8-8M2 9l8 8" stroke="currentColor" stroke-width="2"/></symbol><symbol id="icon-github" viewBox="0 0 48 48"><path clip-rule="evenodd" d="M24.043.18C10.815.18.088 11.088.088 24.544c0 10.766 6.864 19.899 16.382 23.12 1.197.226 1.637-.528 1.637-1.172 0-.58-.023-2.5-.033-4.536-6.664 1.474-8.07-2.875-8.07-2.875-1.09-2.816-2.66-3.565-2.66-3.565-2.174-1.512.163-1.481.163-1.481 2.406.172 3.673 2.51 3.673 2.51 2.136 3.726 5.604 2.649 6.97 2.026.216-1.574.837-2.65 1.522-3.258-5.321-.616-10.915-2.705-10.915-12.041 0-2.66.936-4.834 2.469-6.54-.25-.614-1.07-3.092.232-6.448 0 0 2.011-.655 6.59 2.498 1.91-.54 3.96-.811 5.995-.82 2.036.009 4.087.28 6.001.82 4.573-3.153 6.582-2.498 6.582-2.498 1.303 3.356.483 5.834.234 6.448 1.536 1.706 2.466 3.88 2.466 6.54 0 9.358-5.604 11.419-10.939 12.022.86.756 1.625 2.239 1.625 4.512 0 3.26-.027 5.883-.027 6.686 0 .649.43 1.408 1.645 1.17 9.513-3.226 16.368-12.356 16.368-23.117C47.998 11.087 37.273.18 24.043.18z"/><path clip-rule="evenodd" d="M9.16 35.162c-.052.122-.24.158-.41.075-.173-.08-.271-.245-.215-.366.052-.125.24-.16.413-.077.174.08.273.247.213.368zm.971 1.101c-.114.108-.337.058-.489-.113-.157-.17-.186-.397-.07-.506.118-.108.334-.057.491.113.157.172.188.397.068.506zm.945 1.403c-.147.104-.387.007-.536-.21-.146-.217-.146-.477.004-.58.149-.105.385-.011.535.204.147.22.147.48-.003.586zm1.294 1.356c-.132.147-.411.108-.616-.093-.21-.197-.268-.476-.136-.623.133-.148.414-.106.62.093.208.196.272.477.132.623zm1.785.788c-.058.19-.327.277-.599.196-.27-.084-.448-.307-.393-.5.056-.192.327-.283.6-.196.27.083.448.305.392.5zm1.96.145c.007.201-.223.368-.508.37-.286.008-.518-.155-.521-.353 0-.202.225-.367.511-.372.285-.006.518.155.518.355zm1.825-.315c.034.195-.164.397-.447.45-.278.052-.535-.07-.57-.264-.035-.2.166-.402.444-.454.283-.05.537.068.573.267z"/></symbol><symbol id="icon-instagram" viewBox="0 0 25 25"><path clip-rule="evenodd" d="M0 12.5C0 5.596 5.596 0 12.5 0S25 5.596 25 12.5 19.404 25 12.5 25 0 19.404 0 12.5zm12.5-6.667c-1.81 0-2.037.008-2.748.04-.71.033-1.194.145-1.618.31-.439.17-.81.398-1.181.77a3.27 3.27 0 00-.77 1.18c-.165.424-.278.909-.31 1.618-.031.711-.04.939-.04 2.75 0 1.81.008 2.036.04 2.747.033.71.146 1.194.31 1.618.17.439.399.81.77 1.181.37.371.742.6 1.18.77.424.165.909.277 1.618.31.711.032.938.04 2.749.04 1.81 0 2.037-.008 2.748-.04.71-.033 1.195-.145 1.62-.31.437-.17.809-.399 1.18-.77.37-.37.598-.742.769-1.18.164-.425.276-.91.31-1.619.031-.71.04-.937.04-2.748 0-1.81-.009-2.038-.04-2.749-.034-.71-.146-1.194-.31-1.618a3.274 3.274 0 00-.77-1.18 3.259 3.259 0 00-1.18-.77c-.425-.165-.91-.277-1.62-.31-.711-.032-.937-.04-2.748-.04h.002z"/><path clip-rule="evenodd" d="M11.903 7.035h.598c1.78 0 1.99.006 2.694.038.65.03 1.002.138 1.237.23.311.12.533.265.766.498.234.234.378.456.5.767.09.235.2.587.229 1.237.032.703.039.914.039 2.694 0 1.779-.007 1.99-.04 2.693-.029.65-.137 1.002-.229 1.237a2.06 2.06 0 01-.499.766 2.06 2.06 0 01-.766.499c-.234.091-.587.2-1.237.23-.703.031-.914.038-2.694.038-1.78 0-1.992-.007-2.694-.039-.65-.03-1.003-.138-1.238-.23a2.065 2.065 0 01-.767-.498 2.066 2.066 0 01-.499-.766c-.091-.235-.2-.588-.23-1.238-.031-.703-.038-.914-.038-2.694 0-1.78.007-1.99.039-2.693.03-.65.138-1.003.23-1.238.12-.311.265-.533.498-.767A2.07 2.07 0 018.57 7.3c.235-.091.588-.2 1.238-.23.615-.027.853-.036 2.096-.037v.002zm4.156 1.107a.8.8 0 100 1.6.8.8 0 000-1.6zm-3.558.934a3.424 3.424 0 100 6.848 3.424 3.424 0 000-6.848z"/><path clip-rule="evenodd" d="M12.5 10.278a2.222 2.222 0 110 4.444 2.222 2.222 0 010-4.444z"/></symbol><symbol id="icon-mail" viewBox="0 0 25 25"><path clip-rule="evenodd" d="M12.5 0C5.596 0 0 5.596 0 12.5S5.596 25 12.5 25 25 19.404 25 12.5 19.404 0 12.5 0zM5.208 12.48c0-4.01 3.271-7.272 7.292-7.272 4.02 0 7.291 3.262 7.291 7.271a6.44 6.44 0 01-.153 1.49l-.002.007c0 .002-.053.214-.082.307-.18.575-.506 1.054-.943 1.384a2.467 2.467 0 01-1.676.49 2.372 2.372 0 01-1.822-1.085 3.687 3.687 0 01-6.301-2.592A3.687 3.687 0 0112.5 8.801a3.687 3.687 0 013.688 3.677v1.186c.003.692.469.974.866 1.006.396.03.923-.199 1.106-.95.09-.41.137-.829.137-1.242 0-3.187-2.6-5.78-5.797-5.78-3.196 0-5.797 2.593-5.797 5.78 0 3.188 2.6 5.78 5.797 5.78a5.784 5.784 0 003.13-.916l.016-.01.982 1.138-.02.015A7.263 7.263 0 0112.5 19.75c-4.02 0-7.292-3.261-7.292-7.27z"/><path clip-rule="evenodd" d="M14.693 12.48a2.193 2.193 0 01-4.386 0 2.193 2.193 0 014.387 0z"/></symbol><symbol id="icon-mobile" viewBox="0 0 78 78"><path d="M55 0H23c-3.3 0-6 2.7-6 6v66c0 3.3 2.7 6 6 6h32c3.3 0 6-2.7 6-6V6c0-3.3-2.7-6-6-6zm2 72c0 1.1-.9 2-2 2H23c-1.1 0-2-.9-2-2v-4h36v4zm0-8H21V14h36v50zm0-54H21V6c0-1.1.9-2 2-2h32c1.1 0 2 .9 2 2v4z"/></symbol><symbol id="icon-pc" viewBox="0 0 80 80"><path d="M74 7H6c-3.3 0-6 2.7-6 6v42c0 3.3 2.7 6 6 6h22v4.2c-.1.4-.9 1.5-1.3 2-1.1 1.4-2.2 2.8-1.4 4.4.3.7 1.1 1.4 2.7 1.4h23c1 0 3.3 0 4.1-1.8.8-1.8-.6-3.2-1.8-4.5-.4-.5-1.1-1.2-1.3-1.6V61h22c3.3 0 6-2.7 6-6V13c0-3.3-2.7-6-6-6zM30.3 69c.9-1.1 1.7-2.4 1.7-3.8V61h16v4.2c0 1.4 1 2.7 2 3.8H30.3zM76 55c0 1.1-.9 2-2 2H6c-1.1 0-2-.9-2-2v-6h72v6zm0-10H4V13c0-1.1.9-2 2-2h68c1.1 0 2 .9 2 2v32z" fill="#3f2d2"/></symbol><symbol id="icon-tablet" viewBox="0 0 78 78"><path d="M61 0H17c-3.3 0-6 2.7-6 6v66c0 3.3 2.7 6 6 6h44c3.3 0 6-2.7 6-6V6c0-3.3-2.7-6-6-6zm2 72c0 1.1-.9 2-2 2H17c-1.1 0-2-.9-2-2v-4h48v4zm0-8H15V14h48v50zm0-54H15V6c0-1.1.9-2 2-2h44c1.1 0 2 .9 2 2v4z"/></symbol><symbol id="icon-tg" viewBox="0 0 25 25"><path clip-rule="evenodd" d="M25 12.5C25 19.404 19.404 25 12.5 25S0 19.404 0 12.5 5.596 0 12.5 0 25 5.596 25 12.5zM8.37 11.355c-1.252.547-2.538 1.108-3.715 1.756-.614.45.202.768.968 1.067.122.047.243.094.356.141l.287.09c.852.272 1.802.575 2.63.12 1.358-.781 2.64-1.683 3.921-2.585.42-.295.84-.59 1.262-.882l.066-.043c.36-.233 1.169-.757.87-.035-.708.774-1.466 1.46-2.228 2.148-.513.464-1.029.93-1.532 1.426-.438.356-.893 1.072-.402 1.57 1.13.791 2.278 1.563 3.425 2.335.373.25.746.502 1.119.754.631.504 1.618.096 1.757-.692l.185-1.087c.343-2.002.685-4.005.988-6.014.041-.316.088-.63.134-.946.114-.764.227-1.529.262-2.297-.091-.767-1.02-.598-1.538-.426-2.659 1.012-5.291 2.099-7.913 3.205l-.901.395z"/></symbol><symbol id="icon-vkontakte" viewBox="0 0 25 25"><path clip-rule="evenodd" d="M0 12.5C0 5.596 5.596 0 12.5 0S25 5.596 25 12.5 19.404 25 12.5 25 0 19.404 0 12.5zm13.154 4.102s.24-.026.364-.156c.113-.12.109-.344.109-.344s-.015-1.049.481-1.204c.49-.152 1.117 1.015 1.784 1.463.503.34.885.265.885.265l1.781-.024s.931-.056.49-.775c-.037-.059-.258-.532-1.324-1.504-1.117-1.017-.967-.852.378-2.612.819-1.072 1.146-1.726 1.044-2.006-.098-.267-.7-.196-.7-.196l-2.005.012s-.148-.02-.259.045c-.107.063-.177.211-.177.211s-.317.829-.74 1.534c-.893 1.488-1.25 1.567-1.396 1.475-.34-.216-.255-.866-.255-1.327 0-1.442.223-2.044-.433-2.2-.218-.051-.379-.085-.936-.09-.716-.008-1.32.002-1.664.166-.228.11-.404.354-.296.368.132.018.432.08.591.292.205.275.198.89.198.89s.118 1.698-.276 1.909c-.27.145-.64-.15-1.436-1.5-.408-.692-.716-1.456-.716-1.456s-.059-.143-.165-.22c-.129-.093-.308-.121-.308-.121l-1.905.012s-.286.008-.391.13c-.094.108-.007.333-.007.333s1.491 3.425 3.18 5.151c1.549 1.583 3.307 1.48 3.307 1.48h.797z"/></symbol></svg>