<?xml version="1.0" standalone="no"?>
<!DOCTYPE svg PUBLIC "-//W3C//DTD SVG 20010904//EN"
 "http://www.w3.org/TR/2001/REC-SVG-20010904/DTD/svg10.dtd">
<svg version="1.0" xmlns="http://www.w3.org/2000/svg"
 width="700.000000pt" height="700.000000pt" viewBox="0 0 700.000000 700.000000"
 preserveAspectRatio="xMidYMid meet">
<metadata>
Created by potrace 1.11, written by Peter Selinger 2001-2013
</metadata>
<g transform="translate(0.000000,700.000000) scale(0.100000,-0.100000)"
fill="#000000" stroke="none">
<path d="M3290 6934 c-1033 -62 -1945 -564 -2314 -1274 -88 -170 -143 -331
-170 -498 -7 -46 -17 -87 -22 -91 -5 -4 -40 -15 -79 -25 -38 -9 -111 -37 -161
-61 -295 -142 -500 -431 -536 -758 -52 -460 246 -902 691 -1026 41 -11 77 -24
81 -28 4 -4 172 -683 374 -1508 401 -1638 375 -1547 460 -1586 40 -18 105 -19
1886 -19 1781 0 1846 1 1886 19 85 39 59 -52 460 1586 202 825 370 1504 374
1508 4 4 40 17 81 28 307 86 557 330 654 639 140 449 -72 937 -500 1146 -49
24 -126 53 -169 64 -44 11 -80 21 -81 23 0 1 -8 48 -18 104 -35 217 -153 493
-295 693 -92 130 -328 367 -472 472 -514 379 -1145 580 -1850 592 -118 2 -244
2 -280 0z m675 -383 c591 -92 1075 -311 1423 -645 292 -281 443 -588 468 -951
11 -170 56 -217 217 -229 160 -11 278 -66 393 -180 115 -115 174 -259 174
-426 0 -188 -76 -345 -226 -468 -60 -49 -177 -105 -252 -121 -75 -16 -5249
-16 -5324 0 -77 16 -193 72 -255 123 -150 124 -223 278 -223 471 0 168 55 301
175 421 115 116 223 165 402 182 77 8 99 14 128 36 54 42 67 76 76 211 23 333
169 635 434 900 350 351 873 593 1455 674 208 30 198 29 510 26 232 -2 311 -7
425 -24z m-2497 -3513 c78 -453 241 -1394 338 -1951 63 -362 114 -660 114
-662 0 -3 -22 -5 -49 -5 l-49 0 -11 48 c-5 26 -150 616 -321 1312 -171 696
-317 1291 -325 1323 l-13 57 147 0 148 0 21 -122z m830 -5 c19 -190 261 -2510
268 -2566 l6 -47 -146 0 c-80 0 -146 2 -146 4 0 6 -449 2598 -460 2655 -5 29
-10 60 -10 67 0 11 44 14 238 14 l238 0 12 -127z m1022 -1243 l0 -1370 -194 0
-195 0 -6 43 c-3 23 -60 560 -125 1192 -121 1163 -145 1386 -155 1463 l-6 42
340 0 341 0 0 -1370z m1035 1328 c-10 -77 -33 -300 -155 -1463 -65 -632 -122
-1169 -125 -1192 l-6 -43 -195 0 -194 0 0 1370 0 1370 341 0 340 0 -6 -42z
m835 28 c0 -8 -7 -49 -15 -92 -15 -82 -455 -2623 -455 -2630 0 -2 -65 -4 -145
-4 -80 0 -145 1 -145 3 0 2 58 561 129 1242 72 682 136 1297 142 1368 l13 127
238 0 c196 0 238 -2 238 -14z m636 -78 c-13 -51 -164 -668 -336 -1371 l-314
-1277 -49 0 c-46 0 -49 1 -44 23 5 18 90 508 449 2595 l21 122 147 0 148 0
-22 -92z"/>
<path d="M3408 6220 c-331 -39 -564 -289 -520 -557 33 -197 187 -350 417 -414
112 -31 278 -31 390 0 283 79 458 307 416 542 -49 280 -359 469 -703 429z
m242 -376 c44 -20 110 -77 110 -95 0 -4 -15 -5 -32 -1 -18 4 -67 7 -108 6 -84
0 -168 -31 -215 -78 -25 -26 -34 -76 -13 -76 6 0 8 -3 5 -6 -11 -12 -116 46
-137 76 -48 67 -3 141 112 182 71 25 213 21 278 -8z m-203 -260 c-3 -3 -12 -4
-19 -1 -8 3 -5 6 6 6 11 1 17 -2 13 -5z m130 0 c-3 -3 -12 -4 -19 -1 -8 3 -5
6 6 6 11 1 17 -2 13 -5z"/>
<path d="M2035 5140 c-148 -31 -255 -114 -319 -249 -30 -64 -31 -71 -31 -196
1 -115 4 -138 27 -197 40 -105 86 -175 173 -264 126 -128 274 -200 430 -211
140 -9 255 29 347 115 187 175 184 478 -7 731 -147 194 -417 312 -620 271z
m176 -365 c44 -16 149 -90 149 -106 0 -5 -20 -9 -45 -9 -64 0 -85 -24 -85 -94
0 -43 8 -69 34 -120 l34 -66 -36 16 c-124 51 -220 173 -230 290 -4 46 -1 56
21 78 31 31 90 35 158 11z m236 -322 c-3 -10 -5 -2 -5 17 0 19 2 27 5 18 2
-10 2 -26 0 -35z"/>
<path d="M4755 5134 c-304 -67 -555 -367 -555 -664 0 -131 37 -226 121 -315
194 -205 544 -172 789 75 91 92 138 161 178 268 23 59 26 82 27 197 0 125 -1
132 -31 196 -94 197 -302 293 -529 243z m190 -369 c16 -15 25 -36 25 -54 0
-26 -5 -31 -35 -40 -93 -25 -209 -132 -240 -218 -26 -75 -29 -78 -66 -75 -95
8 -104 123 -20 249 67 100 166 161 264 162 38 1 53 -4 72 -24z m-45 -249 c0
-2 -8 -10 -17 -17 -16 -13 -17 -12 -4 4 13 16 21 21 21 13z m-40 -40 c0 -2 -8
-10 -17 -17 -16 -13 -17 -12 -4 4 13 16 21 21 21 13z"/>
</g>
</svg>
